<svg width="60" height="60" viewBox="0 0 60 60" fill="none" xmlns="http://www.w3.org/2000/svg">
<path d="M49.8643 37.8373H49.8613C51.2558 36.2818 51.9845 33.9724 51.9845 31.7423C51.9845 30.0898 51.328 28.5049 50.1594 27.3364C48.9909 26.1678 47.406 25.5114 45.7535 25.5114C44.1009 25.5114 42.516 26.1678 41.3475 27.3364C40.179 28.5049 39.5225 30.0898 39.5225 31.7423C39.5225 33.5254 40.0421 35.4338 40.9125 36.8464C41.1273 37.197 41.3719 37.5285 41.6435 37.8373H41.6393C40.189 37.8342 38.775 38.2901 37.5996 39.1396C37.0704 39.0517 36.535 39.0073 35.9987 39.0067H34.9525C35.6002 38.4235 36.1635 37.753 36.6263 37.0145C37.9189 34.9839 38.6602 32.3129 38.6602 29.6865C38.6644 28.5467 38.4435 27.4172 38.0103 26.363C37.577 25.3087 36.9398 24.3503 36.1353 23.5429C35.3308 22.7354 34.3748 22.0947 33.3221 21.6575C32.2694 21.2204 31.1408 20.9953 30.001 20.9953C28.8611 20.9953 27.7325 21.2204 26.6798 21.6575C25.6271 22.0947 24.6711 22.7354 23.8666 23.5429C23.0621 24.3503 22.425 25.3087 21.9917 26.363C21.5584 27.4172 21.3375 28.5467 21.3417 29.6865C21.3417 32.2105 22.0757 34.9092 23.3054 36.9053C23.7782 37.6865 24.3625 38.3945 25.0398 39.0069H24.0004C23.4641 39.0075 22.9287 39.052 22.3995 39.1398C21.2241 38.2903 19.8101 37.8345 18.3598 37.8375H18.3556C18.6272 37.5288 18.8718 37.1973 19.0866 36.8467C19.957 35.4338 20.4766 33.5256 20.4766 31.7426C20.4766 30.0905 19.8203 28.506 18.6521 27.3378C17.4838 26.1695 15.8994 25.5132 14.2473 25.5132C12.5951 25.5132 11.0107 26.1695 9.84246 27.3378C8.67423 28.506 8.01793 30.0905 8.01793 31.7426C8.01793 33.9727 8.74684 36.2821 10.1401 37.8375H10.1348C6.48922 37.8375 3.52344 40.6216 3.52344 44.0436V51.2389C3.52344 51.4876 3.62221 51.726 3.79802 51.9019C3.97384 52.0777 4.2123 52.1764 4.46094 52.1764H14.7852V58.125C14.7852 58.3736 14.8839 58.6121 15.0597 58.7879C15.2356 58.9637 15.474 59.0625 15.7227 59.0625H44.2777C44.5264 59.0625 44.7648 58.9637 44.9406 58.7879C45.1165 58.6121 45.2152 58.3736 45.2152 58.125V52.1762H55.5414C55.7901 52.1762 56.0285 52.0774 56.2044 51.9016C56.3802 51.7258 56.4789 51.4874 56.4789 51.2387V44.0434C56.4789 40.6214 53.5116 37.8373 49.8643 37.8373ZM41.3975 31.7423C41.3975 30.5871 41.8564 29.4791 42.6733 28.6622C43.4902 27.8453 44.5982 27.3864 45.7535 27.3864C46.9088 27.3864 48.0167 27.8453 48.8336 28.6622C49.6505 29.4791 50.1095 30.5871 50.1095 31.7423C50.1095 34.0989 48.9259 37.8373 45.7517 37.8373C42.5797 37.8373 41.3975 34.0989 41.3975 31.7423ZM29.9993 22.9001C31.7984 22.9021 33.5232 23.6177 34.7954 24.8899C36.0676 26.1621 36.7832 27.8869 36.7852 29.6861C36.7852 29.7349 36.7832 29.7839 36.7825 29.8328C34.1701 29.5349 31.9153 28.9539 28.8702 26.5664C28.7203 26.4489 28.5382 26.3799 28.3482 26.3684C28.1581 26.357 27.9691 26.4037 27.8062 26.5023L23.2304 29.2734C23.3368 27.5496 24.096 25.9311 25.3534 24.7471C26.6109 23.5631 28.2721 22.9027 29.9993 22.9001ZM24.9016 35.9217C24.1189 34.6509 23.5708 33.04 23.3396 31.3983L28.2308 28.437C31.4097 30.7958 33.898 31.3948 36.6165 31.7009C36.3577 33.2798 35.81 34.8041 35.0444 36.007C34.1734 37.3754 32.591 39.007 29.999 39.007C27.8782 39.0067 26.1628 37.9688 24.9016 35.9217ZM9.89234 31.7423C9.89234 31.1705 10.005 30.6043 10.2238 30.076C10.4426 29.5477 10.7634 29.0677 11.1677 28.6634C11.572 28.259 12.0521 27.9383 12.5803 27.7195C13.1086 27.5006 13.6749 27.388 14.2467 27.388C14.8185 27.388 15.3847 27.5006 15.913 27.7195C16.4413 27.9383 16.9213 28.259 17.3257 28.6634C17.73 29.0677 18.0507 29.5477 18.2696 30.076C18.4884 30.6043 18.601 31.1705 18.601 31.7423C18.601 34.0989 17.4188 37.8373 14.2467 37.8373C11.0745 37.8373 9.89234 34.0989 9.89234 31.7423ZM5.39785 50.3012V44.0434C5.39785 41.6552 7.52258 39.7123 10.1342 39.7123H18.3593C18.8642 39.7122 19.3664 39.7872 19.8493 39.9349C16.8477 41.3585 14.7842 44.2727 14.7842 47.6314V50.3016L5.39785 50.3012ZM43.3393 57.1875H38.5871V51.408C38.5871 51.1594 38.4883 50.9209 38.3125 50.7451C38.1367 50.5693 37.8983 50.4705 37.6496 50.4705C37.401 50.4705 37.1625 50.5693 36.9867 50.7451C36.8109 50.9209 36.7121 51.1594 36.7121 51.408V57.1875H23.2897V51.408C23.2897 51.1594 23.1909 50.9209 23.0151 50.7451C22.8393 50.5693 22.6008 50.4705 22.3522 50.4705C22.1035 50.4705 21.8651 50.5693 21.6893 50.7451C21.5135 50.9209 21.4147 51.1594 21.4147 51.408V57.1875H16.6592V47.6311C16.6592 43.9095 19.9522 40.8817 23.9998 40.8817H35.9993C40.0469 40.8817 43.3399 43.9095 43.3399 47.6311L43.3393 57.1875ZM54.6039 50.3012H45.2143V47.6311C45.2143 44.2724 43.1509 41.3582 40.1492 39.9346C40.6321 39.7869 41.1343 39.7118 41.6393 39.7119H49.8643C52.4776 39.7119 54.6039 41.6549 54.6039 44.043V50.3012ZM24.7899 12.1005L24.0586 17.1748C24.0342 17.3437 24.0565 17.5161 24.1229 17.6733C24.1893 17.8306 24.2974 17.9667 24.4355 18.067C24.5736 18.1673 24.7365 18.228 24.9066 18.2425C25.0766 18.2571 25.2475 18.2249 25.4006 18.1495L29.9993 15.8854L34.6012 18.1498C34.7544 18.2251 34.9252 18.2573 35.0952 18.2427C35.2653 18.2281 35.4281 18.1674 35.5662 18.0671C35.7043 17.9668 35.8124 17.8307 35.8788 17.6734C35.9452 17.5162 35.9675 17.3438 35.9431 17.1749L35.2116 12.1007L38.7867 8.42519C38.9057 8.30287 38.989 8.15038 39.0277 7.98417C39.0665 7.81796 39.0591 7.64434 39.0064 7.48202C38.9537 7.3197 38.8577 7.17485 38.7287 7.06307C38.5998 6.95129 38.4427 6.87684 38.2746 6.84773L33.221 5.97293L30.8284 1.43777C30.7488 1.28683 30.6295 1.16046 30.4834 1.0723C30.3373 0.984146 30.1699 0.937536 29.9993 0.9375C29.8286 0.937537 29.6611 0.984172 29.515 1.07237C29.3689 1.16058 29.2496 1.287 29.17 1.43801L26.7807 5.97316L21.7275 6.84785C21.5593 6.87696 21.4023 6.95141 21.2733 7.06319C21.1444 7.17496 21.0484 7.31982 20.9957 7.48214C20.943 7.64446 20.9356 7.81808 20.9743 7.98429C21.013 8.1505 21.0964 8.30299 21.2154 8.42531L24.7899 12.1005ZM27.5548 7.74176C27.6963 7.71727 27.8302 7.66065 27.9462 7.57625C28.0623 7.49185 28.1574 7.38193 28.2243 7.25496L29.9993 3.88523L31.7773 7.25543C31.8443 7.38229 31.9394 7.4921 32.0554 7.57641C32.1715 7.66072 32.3053 7.71729 32.4466 7.74176L36.2028 8.39191L33.5461 11.1239C33.446 11.2268 33.3708 11.3513 33.3265 11.4879C33.2821 11.6244 33.2697 11.7693 33.2902 11.9114L33.8338 15.6824L30.4132 13.9992C30.2844 13.9358 30.1427 13.9028 29.9991 13.9028C29.8556 13.9028 29.7139 13.9358 29.5851 13.9992L26.1682 15.6817L26.7116 11.9113C26.732 11.7692 26.7196 11.6243 26.6753 11.4878C26.6309 11.3513 26.5558 11.2268 26.4557 11.1239L23.7985 8.39191L27.5548 7.74176ZM7.38992 13.6818L6.88754 17.1752C6.86325 17.3442 6.88554 17.5166 6.95201 17.6738C7.01848 17.831 7.12661 17.9671 7.26474 18.0673C7.40287 18.1676 7.56575 18.2283 7.73582 18.2428C7.90589 18.2573 8.07669 18.2251 8.2298 18.1496L11.3963 16.5898L14.5597 18.1494C14.7128 18.2249 14.8836 18.2571 15.0537 18.2427C15.2238 18.2282 15.3867 18.1676 15.5248 18.0673C15.663 17.9671 15.7711 17.831 15.8376 17.6738C15.9041 17.5166 15.9265 17.3442 15.9022 17.1752L15.3998 13.6821L17.8618 11.1525C17.9808 11.0302 18.0642 10.8777 18.1029 10.7115C18.1417 10.5453 18.1343 10.3717 18.0817 10.2093C18.029 10.047 17.933 9.90212 17.8041 9.79032C17.6751 9.67852 17.5181 9.60405 17.3499 9.57492L13.8711 8.97258L12.2258 5.85246C12.1462 5.70157 12.027 5.57525 11.8809 5.48712C11.7348 5.39898 11.5675 5.35237 11.3969 5.3523C11.2264 5.35229 11.059 5.39881 10.913 5.48684C10.7669 5.57487 10.6476 5.70108 10.5679 5.85188L8.9191 8.97258L5.44309 9.57504C5.27499 9.60417 5.11803 9.67862 4.98911 9.79037C4.8602 9.90211 4.76422 10.0469 4.71152 10.2092C4.65882 10.3714 4.6514 10.545 4.69005 10.7112C4.7287 10.8773 4.81196 11.0298 4.93086 11.1521L7.38992 13.6818ZM9.69301 10.7414C9.83421 10.717 9.96793 10.6604 10.0839 10.5762C10.1998 10.492 10.295 10.3824 10.3619 10.2557L11.3957 8.29863L12.427 10.2557C12.4939 10.3826 12.589 10.4924 12.7051 10.5768C12.8211 10.6612 12.955 10.7177 13.0964 10.7422L15.2773 11.1198L13.7339 12.7057C13.6338 12.8086 13.5586 12.933 13.5142 13.0695C13.4698 13.206 13.4574 13.3509 13.4778 13.493L13.7926 15.6817L11.8106 14.7046C11.6817 14.6411 11.5399 14.608 11.3962 14.608C11.2525 14.608 11.1107 14.6411 10.9818 14.7046L8.99609 15.6827L9.31098 13.4932C9.3314 13.3512 9.31897 13.2064 9.27464 13.07C9.2303 12.9336 9.15526 12.8092 9.05527 12.7063L7.51367 11.1191L9.69301 10.7414ZM44.5988 13.6818L44.0969 17.1752C44.0726 17.3442 44.0949 17.5166 44.1614 17.6738C44.2279 17.831 44.336 17.9671 44.4741 18.0673C44.6122 18.1676 44.7751 18.2283 44.9452 18.2428C45.1153 18.2573 45.2861 18.2251 45.4392 18.1496L48.6058 16.5898L51.7726 18.1496C51.9258 18.2251 52.0966 18.2573 52.2668 18.2428C52.4369 18.2282 52.5998 18.1675 52.738 18.0671C52.8761 17.9667 52.9842 17.8305 53.0506 17.6732C53.117 17.5159 53.1392 17.3434 53.1147 17.1744L52.6095 13.6822L55.0712 11.153C55.1902 11.0307 55.2736 10.8782 55.3123 10.712C55.3511 10.5458 55.3437 10.3721 55.291 10.2098C55.2384 10.0475 55.1424 9.90259 55.0134 9.79079C54.8845 9.67899 54.7275 9.60452 54.5593 9.57539L51.0804 8.97305L49.4346 5.85246C49.355 5.70155 49.2357 5.57522 49.0896 5.48709C48.9436 5.39895 48.7762 5.35235 48.6056 5.3523C48.4351 5.35232 48.2678 5.39884 48.1217 5.48687C47.9757 5.5749 47.8564 5.70109 47.7767 5.85188L46.1282 8.97258L42.6522 9.57504C42.4841 9.60415 42.3271 9.67859 42.1982 9.79033C42.0693 9.90207 41.9733 10.0469 41.9206 10.2091C41.8679 10.3714 41.8604 10.545 41.8991 10.7111C41.9377 10.8773 42.021 11.0298 42.1399 11.1521L44.5988 13.6818ZM46.9018 10.7414C47.043 10.7169 47.1767 10.6604 47.2927 10.5762C47.4087 10.492 47.5038 10.3823 47.5707 10.2555L48.6045 8.29852L49.6358 10.2555C49.7027 10.3825 49.7978 10.4923 49.9139 10.5767C50.0299 10.661 50.1638 10.7176 50.3052 10.7421L52.4863 11.1197L50.9427 12.7056C50.8425 12.8086 50.7673 12.9332 50.7229 13.0698C50.6785 13.2065 50.6661 13.3515 50.6867 13.4937L51.0031 15.6816L49.0191 14.7042C48.8902 14.6408 48.7485 14.6078 48.6048 14.6078C48.4612 14.6078 48.3194 14.6408 48.1905 14.7042L46.2049 15.6823L46.5198 13.493C46.5402 13.351 46.5278 13.2062 46.4835 13.0697C46.4391 12.9333 46.3641 12.8088 46.2641 12.7059L44.7225 11.1191L46.9018 10.7414Z" fill="white"/>
</svg>
