<svg width="60" height="65" viewBox="0 0 60 65" fill="none" xmlns="http://www.w3.org/2000/svg">
<path d="M60 11.7078C60 5.25215 54.8699 0 48.5642 0C45.6627 0 43.0112 1.11248 40.9926 2.94123C38.1912 1.92346 35.2617 1.40663 32.2722 1.40663C28.2636 1.40663 24.415 2.31548 20.8332 4.1078C20.2158 4.4168 19.9589 5.18194 20.2593 5.81696C20.4745 6.2717 20.9173 6.53627 21.3782 6.53627C21.5608 6.53627 21.7461 6.49476 21.9213 6.40716C25.1613 4.78572 28.6438 3.96383 32.2724 3.96383C34.6314 3.96383 36.9487 4.31917 39.1836 5.01995C38.1894 6.47648 37.5083 8.17256 37.2462 10.007C35.5978 9.5015 33.8912 9.24582 32.1535 9.24582C23.0651 9.24582 15.4338 16.2428 14.4026 25.5214C14.3246 26.2229 14.8145 26.8566 15.4967 26.9368C16.1783 27.0158 16.7951 26.5134 16.8731 25.8116C17.7608 17.8254 24.3299 11.8029 32.1536 11.8029C33.871 11.8029 35.5526 12.0926 37.1636 12.665C37.597 18.1258 41.7053 22.5385 46.9463 23.3016L46.9493 23.3031C47.3356 24.7084 47.5309 26.1616 47.5309 27.6341C47.5309 32.1966 45.6382 36.4982 42.3227 39.5081H36.8991V30.8502C36.8991 29.8176 37.715 28.9774 38.7178 28.9774C39.7206 28.9774 40.5366 29.8176 40.5366 30.8502C40.5366 31.5563 41.0932 32.1289 41.7798 32.1289C42.4663 32.1289 43.023 31.5563 43.023 30.8502C43.023 28.4075 41.0916 26.4202 38.7178 26.4202C36.344 26.4202 34.4126 28.4075 34.4126 30.8502V39.5081H29.9117V30.8502C29.9117 28.4075 27.9804 26.4202 25.6066 26.4202C23.2327 26.4202 21.3014 28.4075 21.3014 30.8502C21.3014 31.5563 21.858 32.1289 22.5446 32.1289C23.2311 32.1289 23.7878 31.5563 23.7878 30.8502C23.7878 29.8176 24.6036 28.9774 25.6064 28.9774C26.6093 28.9774 27.4252 29.8176 27.4252 30.8502V39.5081H21.9868C20.869 38.4959 19.8993 37.3239 19.1037 36.015C18.7399 35.4163 17.973 35.2342 17.3905 35.6086C16.8082 35.9827 16.6313 36.7716 16.9952 37.3705C17.9443 38.9319 19.1053 40.3283 20.4498 41.5263L21.9659 46.3451C22.6648 48.5749 23.8219 49.7936 25.4084 49.9765V50.2196C25.4084 54.0449 28.4341 57.157 32.1533 57.157C35.8706 57.157 38.8948 54.0449 38.8948 50.2196V49.9742C40.4779 49.7907 41.6364 48.575 42.3403 46.3465L43.857 41.5254C47.7768 38.0254 50.017 32.9844 50.017 27.6342C50.017 26.1928 49.8547 24.7671 49.5348 23.3768C51.5464 23.2027 53.4115 22.4932 54.9931 21.3883C55.6472 23.6431 55.9789 25.9822 55.9789 28.3646C55.9789 34.3094 53.8782 40.036 50.064 44.4892C49.864 44.7225 49.7537 45.0232 49.7537 45.3342V62.4427H17.9331V55.541C17.9332 54.7963 17.9335 54.0928 17.5538 53.4693C16.9695 52.5095 15.9131 52.3985 15.1694 52.3985H10.3493C9.3657 52.3985 8.56546 51.5745 8.56546 50.5616V40.7942C8.56546 40.0881 8.00879 39.5157 7.32225 39.5157H2.6683C2.70941 39.4216 2.75978 39.3118 2.82175 39.1837L8.36805 27.7202C8.37447 27.7071 8.3799 27.6978 8.38422 27.6902C8.50558 27.4725 8.58978 27.2527 8.60583 26.8912C8.8983 21.8663 10.6643 17.125 13.7134 13.1802C14.1406 12.6274 14.0511 11.8232 13.5137 11.3838C12.9762 10.9443 12.1941 11.0361 11.7668 11.5891C8.42558 15.912 6.47891 21.0997 6.132 26.6015L0.595336 38.0452C0.136817 38.9938 -0.303676 40.0869 0.27904 41.054C0.893113 42.073 2.17373 42.073 2.65583 42.073H6.07904V50.5617C6.07904 52.9846 7.99459 54.9558 10.3493 54.9558H15.1694C15.2825 54.9558 15.3704 54.9602 15.4379 54.9664C15.4468 55.134 15.4467 55.359 15.4467 55.5406V62.9012C15.4467 64.0584 16.3619 65 17.4868 65H50.2C51.3249 65 52.2402 64.0584 52.2402 62.9012V45.8103C56.258 40.9444 58.4656 34.7688 58.4656 28.3645C58.4656 25.3468 57.9833 22.3911 57.034 19.5655C58.8753 17.486 60 14.7295 60 11.7078ZM36.4085 50.2196C36.4085 52.635 34.4998 54.5999 32.1535 54.5999C29.8053 54.5999 27.895 52.635 27.895 50.2196V50.0016H36.4084V50.2196H36.4085ZM39.9751 45.5579C39.3793 47.4444 38.7158 47.4444 38.4661 47.4444H25.8373C25.5873 47.4444 24.9231 47.4444 24.3322 45.5593L23.233 42.0654H28.6685H35.6558H41.0738L39.9751 45.5579ZM48.5642 20.8621C43.7841 20.8621 39.867 17.0116 39.6236 12.1846C39.6188 12.0426 39.6157 11.9005 39.6149 11.7587C39.6148 11.7347 39.6133 11.711 39.612 11.6872C39.623 6.65104 43.6345 2.5572 48.5642 2.5572C53.4989 2.5572 57.5136 6.66208 57.5136 11.7079C57.5136 16.7556 53.4989 20.8621 48.5642 20.8621Z" fill="#5956E9"/>
</svg>
