<svg width="50" height="50" viewBox="0 0 50 50" fill="none" xmlns="http://www.w3.org/2000/svg">
<path d="M18.7502 10.75L23.0481 20.2055L23.2033 20.5469L23.5447 20.7021L33.0002 25L23.5447 29.298L23.2033 29.4532L23.0481 29.7946L18.7502 39.2501L14.4522 29.7946L14.297 29.4532L13.9556 29.298L4.5001 25L13.9556 20.7021L14.297 20.5469L14.4522 20.2055L18.7502 10.75ZM39.5799 16.3486L37.867 12.6239L37.7125 12.2878L37.3763 12.1332L33.6516 10.4203L37.3736 8.72234L37.7125 8.56773L37.8676 8.22908L39.5799 4.49201L41.2773 8.22634L41.4325 8.56773L41.7739 8.72291L45.5082 10.4203L41.7711 12.1326L41.4325 12.2878L41.2779 12.6267L39.5799 16.3486ZM39.5799 45.5153L37.867 41.7906L37.7125 41.4544L37.3763 41.2998L33.6516 39.587L37.3736 37.889L37.7125 37.7344L37.8676 37.3957L39.5799 33.6587L41.2773 37.393L41.4325 37.7344L41.7739 37.8896L45.5082 39.587L41.7711 41.2993L41.4325 41.4544L41.2779 41.7933L39.5799 45.5153Z" stroke="white" stroke-width="2"/>
</svg>
