<svg width="48" height="34" viewBox="0 0 48 34" fill="none" xmlns="http://www.w3.org/2000/svg">
<path d="M13.6191 0.359375C13.502 0.359375 13.375 0.359375 13.2578 0.36914C9.94727 0.447265 5.88477 1.41406 0.826172 3.66016V27.4297C6.76367 24.6172 11.2461 23.8066 14.9082 24.1973C16.2461 24.334 17.4766 24.6367 18.6094 25.0371L14.2051 17.3418C13.3652 17.6836 12.457 17.8789 11.5 17.8789C7.57324 17.8789 4.37109 14.6758 4.37109 10.75C4.37109 6.82422 7.57324 3.62109 11.5 3.62109C15.4258 3.62109 18.6289 6.82422 18.6289 10.75C18.6289 13.0938 17.4863 15.1738 15.7285 16.4824L21.3242 26.248C21.9297 26.5605 22.5059 26.9023 23.0723 27.2441V3.51367C20.8066 1.78516 18.1699 0.583985 14.6738 0.388672C14.332 0.369141 13.9805 0.359375 13.6191 0.359375ZM34.3223 0.359375C33.9609 0.359375 33.5996 0.369141 33.2578 0.388672C29.7617 0.583985 27.1348 1.78516 24.8594 3.51367V27.2441C27.1934 25.8184 29.752 24.5391 33.0234 24.1973C36.6855 23.8066 41.1777 24.6172 47.1055 27.4297V3.66016C42.0566 1.41406 37.9941 0.447265 34.6836 0.36914C34.5566 0.36914 34.4395 0.359375 34.3223 0.359375ZM11.5 5.37891C8.52344 5.37891 6.12891 7.77148 6.12891 10.75C6.12891 13.7285 8.52344 16.1211 11.5 16.1211C14.4785 16.1211 16.8711 13.7285 16.8711 10.75C16.8711 7.77148 14.4785 5.37891 11.5 5.37891ZM11.7246 6.73633H11.998C9.64453 8.51367 8.60156 10.8477 8.73926 13.5918C6.19434 9.80274 8.86328 6.81445 11.7246 6.73633ZM13.0039 25.9258C9.87891 25.9551 5.99219 26.8828 0.826172 29.4414V33.5918C6.76367 30.7793 11.2461 29.9688 14.9082 30.3594C16.7246 30.5547 18.3164 31.0332 19.7715 31.6582C19.3125 32.2539 18.8633 32.957 18.4141 33.7773H23.6191L20.1035 27.6543C18.4824 26.8438 16.7539 26.2285 14.7227 26.0137C14.1758 25.9551 13.5996 25.9258 13.0039 25.9258ZM34.5762 25.9258C34.1074 25.9355 33.6582 25.9648 33.2188 26.0137C29.8984 26.3652 27.3984 27.7715 24.8594 29.373V29.4023C24.2637 29.2168 23.6582 29.1777 23.0723 29.2852L25.6406 33.7773H29.8594C29.2734 32.9766 28.707 32.2734 28.1309 31.668C29.5957 31.0332 31.1973 30.5547 33.0234 30.3594C36.6855 29.9688 41.1777 30.7793 47.1055 33.5918V29.4414C41.9199 26.873 38.0137 25.9355 34.8789 25.9258H34.5762Z" fill="#5956E9"/>
</svg>
