<svg width="50" height="50" viewBox="0 0 50 50" fill="none" xmlns="http://www.w3.org/2000/svg">
<path d="M19.7915 6.25H30.2082C31.037 6.25 31.8318 6.57924 32.4179 7.16529C33.0039 7.75134 33.3332 8.5462 33.3332 9.375C33.3332 11.3089 32.5649 13.1635 31.1975 14.531C29.83 15.8984 27.9754 16.6667 26.0415 16.6667H23.9582C22.0243 16.6667 20.1696 15.8984 18.8022 14.531C17.4347 13.1635 16.6665 11.3089 16.6665 9.375C16.6665 8.5462 16.9957 7.75134 17.5818 7.16529C18.1678 6.57924 18.9627 6.25 19.7915 6.25Z" stroke="white" stroke-width="2" stroke-linecap="round" stroke-linejoin="round"/>
<path d="M8.33325 35.4166V33.3333C8.33325 28.913 10.0892 24.6738 13.2148 21.5482C16.3404 18.4226 20.5796 16.6666 24.9999 16.6666C29.4202 16.6666 33.6594 18.4226 36.785 21.5482C39.9106 24.6738 41.6666 28.913 41.6666 33.3333V35.4166C41.6666 37.6268 40.7886 39.7464 39.2258 41.3092C37.663 42.872 35.5434 43.75 33.3333 43.75H16.6666C14.4564 43.75 12.3368 42.872 10.774 41.3092C9.21123 39.7464 8.33325 37.6268 8.33325 35.4166Z" stroke="white" stroke-width="2" stroke-linecap="round" stroke-linejoin="round"/>
<path d="M27.26 37L24.66 32.92L22.16 37H20.26L23.8 31.56L20.26 26.04H22.32L24.92 30.1L27.4 26.04H29.3L25.78 31.46L29.32 37H27.26Z" fill="white"/>
</svg>
