<svg width="50" height="50" viewBox="0 0 50 50" fill="none" xmlns="http://www.w3.org/2000/svg">
<path d="M31.2502 22.9166V22.9375M10.7773 17.4541C9.86354 16.7518 9.16176 15.8106 8.74951 14.7344C8.33725 13.6582 8.23058 12.489 8.44129 11.356C8.65199 10.2229 9.17186 9.17023 9.94345 8.31419C10.715 7.45815 11.7083 6.83211 12.8134 6.50527C13.9185 6.17843 15.0925 6.16352 16.2056 6.46217C17.3187 6.76083 18.3275 7.36142 19.1206 8.19758C19.9137 9.03374 20.4601 10.0729 20.6996 11.2002C20.939 12.3275 20.8621 13.4991 20.4773 14.5854" stroke="white" stroke-width="2" stroke-linecap="round" stroke-linejoin="round"/>
<path d="M33.3335 8.33325V16.2562C35.9119 17.7481 37.8749 20.1092 38.871 22.9166H41.6648C42.2173 22.9166 42.7472 23.1361 43.1379 23.5268C43.5286 23.9175 43.7481 24.4474 43.7481 24.9999V29.1666C43.7481 29.7191 43.5286 30.249 43.1379 30.6397C42.7472 31.0304 42.2173 31.2499 41.6648 31.2499H38.8689C38.1689 33.2291 36.9794 34.9999 35.4148 36.402V40.6249C35.4148 41.4537 35.0855 42.2486 34.4995 42.8346C33.9134 43.4207 33.1186 43.7499 32.2898 43.7499C31.461 43.7499 30.6661 43.4207 30.0801 42.8346C29.494 42.2486 29.1648 41.4537 29.1648 40.6249V39.4103C28.4763 39.5257 27.7795 39.5835 27.0814 39.5833H18.7481C18.0501 39.5835 17.3532 39.5257 16.6648 39.4103V40.6249C16.6648 41.4537 16.3355 42.2486 15.7495 42.8346C15.1634 43.4207 14.3686 43.7499 13.5398 43.7499C12.711 43.7499 11.9161 43.4207 11.3301 42.8346C10.744 42.2486 10.4148 41.4537 10.4148 40.6249V36.402C8.5272 34.7144 7.1966 32.4934 6.59911 30.033C6.00163 27.5725 6.16542 24.9886 7.06882 22.6233C7.97222 20.258 9.57261 18.2228 11.6582 16.7871C13.7437 15.3514 16.2161 14.5828 18.7481 14.5833H23.9564L33.3335 8.33325Z" stroke="white" stroke-width="2" stroke-linecap="round" stroke-linejoin="round"/>
</svg>
