<svg width="50" height="50" viewBox="0 0 50 50" fill="none" xmlns="http://www.w3.org/2000/svg">
<circle cx="25" cy="25" r="25" fill="#D2042D"/>
<path d="M30.707 25.293C30.6142 25.2 30.504 25.1263 30.3827 25.076C30.2614 25.0257 30.1313 24.9998 30 24.9998C29.8687 24.9998 29.7386 25.0257 29.6173 25.076C29.496 25.1263 29.3858 25.2 29.293 25.293L27.699 26.887C26.96 26.667 25.581 26.167 24.707 25.293C23.833 24.419 23.333 23.04 23.113 22.301L24.707 20.707C24.7999 20.6142 24.8737 20.504 24.924 20.3827C24.9743 20.2613 25.0002 20.1313 25.0002 20C25.0002 19.8686 24.9743 19.7386 24.924 19.6173C24.8737 19.4959 24.7999 19.3857 24.707 19.293L20.707 15.293C20.6142 15.2 20.504 15.1263 20.3827 15.076C20.2614 15.0257 20.1313 14.9998 20 14.9998C19.8687 14.9998 19.7386 15.0257 19.6173 15.076C19.496 15.1263 19.3858 15.2 19.293 15.293L16.581 18.005C16.201 18.385 15.987 18.907 15.995 19.44C16.018 20.864 16.395 25.81 20.293 29.708C24.191 33.606 29.137 33.982 30.562 34.006H30.59C31.118 34.006 31.617 33.798 31.995 33.42L34.707 30.708C34.7999 30.6152 34.8737 30.505 34.924 30.3837C34.9743 30.2623 35.0002 30.1323 35.0002 30.001C35.0002 29.8696 34.9743 29.7396 34.924 29.6183C34.8737 29.4969 34.7999 29.3867 34.707 29.294L30.707 25.293ZM30.58 32.005C29.332 31.984 25.062 31.649 21.707 28.293C18.341 24.927 18.015 20.642 17.995 19.419L20 17.414L22.586 20L21.293 21.293C21.1755 21.4104 21.089 21.5553 21.0416 21.7145C20.9941 21.8738 20.987 22.0423 21.021 22.205C21.045 22.32 21.632 25.047 23.292 26.707C24.952 28.367 27.679 28.954 27.794 28.978C27.9565 29.0129 28.1253 29.0064 28.2846 28.9591C28.444 28.9117 28.5889 28.825 28.706 28.707L30 27.414L32.586 30L30.58 32.005Z" fill="white"/>
</svg>
