<svg width="65" height="65" viewBox="0 0 65 65" fill="none" xmlns="http://www.w3.org/2000/svg">
<rect width="65" height="65" rx="5" fill="#5956E9"/>
<g clip-path="url(#clip0_0_548)">
<path d="M39.0416 29.109C38.6065 29.109 38.2537 29.4617 38.2537 29.8969V51.4962C38.2537 52.0079 37.8372 52.4242 37.3252 52.4242H27.7055C27.1936 52.4242 26.777 52.0079 26.777 51.4962V48.6179H31.0455C31.4807 48.6179 31.8335 48.2652 31.8335 47.83C31.8335 47.3949 31.4808 47.0421 31.0455 47.0421H26.777V43.2358H33.409C33.8441 43.2358 34.197 42.883 34.197 42.4479C34.197 42.0127 33.8442 41.66 33.409 41.66H26.777V37.8537H31.0455C31.4807 37.8537 31.8335 37.5009 31.8335 37.0658C31.8335 36.6306 31.4808 36.2779 31.0455 36.2779H26.777V32.4716H31.0455C31.4807 32.4716 31.8335 32.1188 31.8335 31.6837C31.8335 31.2485 31.4808 30.8958 31.0455 30.8958H26.777V27.0895H31.0455C31.4807 27.0895 31.8335 26.7367 31.8335 26.3016C31.8335 25.8664 31.4808 25.5137 31.0455 25.5137H26.777V21.7072H33.409C33.8441 21.7072 34.197 21.3544 34.197 20.9193C34.197 20.4841 33.8442 20.1314 33.409 20.1314H26.777V16.5038C26.777 15.9921 27.1936 15.5758 27.7055 15.5758H37.3252C37.5733 15.5758 37.8077 15.6739 37.9849 15.8521C38.1595 16.0276 38.255 16.2576 38.2538 16.4998L38.2391 19.367V22.8818C38.2391 23.317 38.5918 23.6697 39.027 23.6697C39.4623 23.6697 39.815 23.317 39.815 22.8818V19.3709L39.8296 16.5078C39.833 15.8433 39.5747 15.2157 39.1022 14.7407C38.6269 14.263 37.9958 14 37.3252 14H27.7055C26.3246 14 25.2012 15.1232 25.2012 16.5038V51.4962C25.2012 52.8768 26.3246 54 27.7055 54H37.3252C38.7061 54 39.8295 52.8768 39.8295 51.4962V29.8969C39.8296 29.4617 39.4768 29.109 39.0416 29.109Z" fill="white"/>
<path d="M39.0399 25.5938C38.6048 25.5938 38.252 25.9465 38.252 26.3816V26.3963C38.252 26.8314 38.6047 27.1841 39.0399 27.1841C39.4752 27.1841 39.8279 26.8314 39.8279 26.3963V26.3816C39.8279 25.9465 39.4751 25.5938 39.0399 25.5938Z" fill="white"/>
<path d="M22.2992 28.5855C22.2973 28.5705 22.2952 28.5556 22.2924 28.5408C22.2906 28.5308 22.2887 28.5208 22.2865 28.5109C22.2835 28.4977 22.2801 28.4848 22.2764 28.4718C22.2736 28.4617 22.271 28.4515 22.2678 28.4416C22.2676 28.4407 22.2673 28.4399 22.2671 28.439L18.9466 18.2484C18.9364 18.2173 18.9243 18.1867 18.9103 18.157C18.8561 18.0417 18.7925 17.9444 18.7161 17.8597C18.4477 17.5573 18.0487 17.4134 17.6473 17.4749C17.2441 17.5367 16.9045 17.7984 16.7387 18.1753C16.7283 18.1992 16.719 18.2236 16.7109 18.2484L15.1705 22.9758C15.1649 22.9914 15.1596 23.0071 15.155 23.0232L13.3904 28.4391C13.3901 28.4399 13.3899 28.4408 13.3897 28.4417C13.3865 28.4516 13.3839 28.4618 13.3811 28.4719C13.3775 28.4849 13.374 28.4978 13.371 28.511C13.3688 28.5209 13.3669 28.5308 13.3651 28.5409C13.3623 28.5557 13.3602 28.5706 13.3583 28.5856C13.3573 28.5941 13.356 28.6025 13.3552 28.6111C13.353 28.6351 13.3516 28.6591 13.3516 28.6832V33.4649C13.3516 33.9 13.7044 34.2527 14.1395 34.2527C14.5747 34.2527 14.9275 33.9 14.9275 33.4649V29.471H17.0409V43.8317H14.9275V40.4628C14.9275 40.0277 14.5748 39.6749 14.1395 39.6749C13.7044 39.6749 13.3516 40.0277 13.3516 40.4628V48.774C13.3516 50.5153 14.7686 51.932 16.5102 51.932H19.1471C20.8888 51.932 22.3058 50.5153 22.3058 48.774V28.6831C22.3058 28.6591 22.3044 28.635 22.3021 28.611C22.3015 28.6025 22.3003 28.594 22.2992 28.5855ZM15.225 27.8952L16.4852 24.0279H19.1724L20.4326 27.8952H15.225ZM17.8287 19.9043L18.6589 22.4521H16.9986L17.8287 19.9043ZM18.6167 29.471H20.7301V43.8317H18.6167V29.471ZM19.1472 50.3562H16.5103C15.6375 50.3562 14.9275 49.6464 14.9275 48.774V45.4075H20.73V48.774C20.73 49.6464 20.02 50.3562 19.1472 50.3562Z" fill="white"/>
<path d="M14.1395 37.7505C14.5747 37.7505 14.9275 37.3978 14.9275 36.9627V36.948C14.9275 36.5129 14.5748 36.1602 14.1395 36.1602C13.7044 36.1602 13.3516 36.5129 13.3516 36.948V36.9627C13.3516 37.3978 13.7044 37.7505 14.1395 37.7505Z" fill="white"/>
<path d="M52.3803 27.0831C51.5231 25.1956 50.6692 23.2664 49.8435 21.4007C49.3838 20.3622 48.9242 19.3236 48.4627 18.2891C48.3346 17.9988 47.995 17.5117 47.1607 17.5117C47.1597 17.5117 47.1589 17.5118 47.1579 17.5118C47.1572 17.5118 47.1566 17.5117 47.1559 17.5117C47.1516 17.5117 47.1475 17.5123 47.1432 17.5123C46.3231 17.5192 45.9827 17.9955 45.8501 18.2867C45.4291 19.2324 45.0101 20.1791 44.5911 21.1258C43.7254 23.0818 42.8302 25.1045 41.9314 27.0832C41.3223 28.4245 41.8628 28.9887 42.4686 29.4516C42.5946 29.5478 42.7246 29.6472 42.8511 29.7724C42.9692 29.9429 43.1622 30.5817 43.1622 32.9327V49.3231C43.1622 50.7616 44.3328 51.9319 45.7715 51.9319H48.5403C49.9804 51.9319 51.1521 50.7616 51.1521 49.3231V33.0519C51.1596 33.0083 51.1643 32.9637 51.1643 32.918C51.1643 32.8731 51.1596 32.8294 51.1525 32.7866C51.1603 30.5561 51.3468 29.9386 51.462 29.7712C51.5874 29.647 51.7174 29.5477 51.8432 29.4516C52.4489 28.9887 52.9895 28.4245 52.3803 27.0831ZM43.3661 27.7348C44.2681 25.7491 45.1648 23.723 46.0321 21.7634C46.144 21.5105 46.256 21.2578 46.3679 21.005V25.6393C46.3679 26.0745 46.7207 26.4272 47.1559 26.4272C47.5911 26.4272 47.9439 26.0745 47.9439 25.6393V21.0044C48.0966 21.3491 48.2499 21.6937 48.4025 22.0384C49.2297 23.9076 50.0851 25.8404 50.9456 27.7347C51.0205 27.8996 51.0519 28.0016 51.0651 28.0582C51.0169 28.0998 50.9442 28.1553 50.8864 28.1995C50.7318 28.3176 50.5393 28.4646 50.3356 28.6691C49.7849 29.2221 49.6175 30.4062 49.5834 32.1301H44.7308C44.6966 30.4056 44.5285 29.2211 43.976 28.6687C43.7725 28.4647 43.5801 28.3176 43.4254 28.1995C43.3676 28.1553 43.295 28.0998 43.2467 28.0582C43.2598 28.0016 43.2913 27.8996 43.3661 27.7348ZM48.5403 50.3561H45.7715C45.2017 50.3561 44.7381 49.8927 44.7381 49.323V33.7059H49.5762V49.3231C49.5761 49.8927 49.1114 50.3561 48.5403 50.3561Z" fill="white"/>
</g>
<defs>
<clipPath id="clip0_0_548">
<rect width="40" height="40" fill="white" transform="translate(13 14)"/>
</clipPath>
</defs>
</svg>
