<svg width="65" height="65" viewBox="0 0 65 65" fill="none" xmlns="http://www.w3.org/2000/svg">
<rect width="65" height="65" rx="5" fill="#5956E9"/>
<g clip-path="url(#clip0_0_565)">
<path d="M50.8079 19.1734C50.8073 19.1674 50.806 19.1616 50.8052 19.1556C50.8024 19.1338 50.7991 19.1122 50.7945 19.091C50.7931 19.0841 50.791 19.0775 50.7893 19.0708C50.7845 19.0508 50.7792 19.0309 50.7728 19.0115C50.7703 19.0039 50.7674 18.9966 50.7646 18.9891C50.7581 18.9711 50.7512 18.9532 50.7434 18.9358C50.7396 18.9274 50.7355 18.9193 50.7314 18.911C50.7236 18.8952 50.7156 18.8795 50.7067 18.8643C50.7016 18.8553 50.6961 18.8466 50.6906 18.8378C50.6819 18.824 50.6727 18.8105 50.6632 18.7972C50.6567 18.7881 50.6501 18.7791 50.6431 18.7703C50.6334 18.7579 50.6231 18.7459 50.6126 18.7342C50.605 18.7257 50.5975 18.7171 50.5895 18.7089C50.5779 18.697 50.5656 18.6857 50.5533 18.6745C50.5471 18.6688 50.5416 18.6627 50.5352 18.6573L42.9325 12.1877C42.9307 12.1862 42.9287 12.1849 42.9269 12.1834C42.9199 12.1776 42.9125 12.1723 42.9054 12.1666C42.8936 12.1574 42.8818 12.1483 42.8695 12.1398C42.8606 12.1336 42.8512 12.1279 42.8419 12.122C42.831 12.1152 42.82 12.1083 42.8088 12.102C42.7981 12.0959 42.7873 12.0905 42.7763 12.0849C42.7659 12.0796 42.7553 12.0745 42.7446 12.0697C42.7329 12.0645 42.721 12.0595 42.709 12.0548C42.6985 12.0506 42.6878 12.0468 42.6771 12.0431C42.6649 12.0389 42.6526 12.0349 42.6401 12.0313C42.6286 12.028 42.617 12.0252 42.6053 12.0224C42.5934 12.0196 42.5816 12.0166 42.5694 12.0144C42.5553 12.0117 42.5412 12.0098 42.527 12.0079C42.5169 12.0066 42.507 12.0048 42.4967 12.0038C42.472 12.0014 42.447 12 42.422 12H26.8222C25.3965 12 24.2367 13.1601 24.2367 14.586V17.2303L17.2473 18.6866C16.5728 18.8275 15.9924 19.2238 15.613 19.8024C15.2331 20.3818 15.1016 21.0723 15.2427 21.7464L21.1322 49.9424C21.2717 50.6159 21.6669 51.1955 22.2451 51.5745C22.6729 51.8551 23.1617 52.0001 23.6599 52.0001C23.8367 52.0001 24.0148 51.9818 24.1917 51.9448L45.1452 47.5781C46.0125 47.3966 46.7133 46.7762 47.0257 45.9746H48.227C49.6527 45.9746 50.8125 44.8145 50.8125 43.3886V19.2573C50.8125 19.229 50.8109 19.201 50.8079 19.1734ZM43.2098 14.4927L47.8832 18.4695H44.6295C43.8467 18.4695 43.2098 17.8335 43.2098 17.0519V14.4927ZM48.227 44.399H46.3946C46.3933 44.399 46.392 44.399 46.3907 44.399H26.8222C26.2653 44.399 25.8124 43.9457 25.8124 43.3886V34.3597C25.8124 33.9246 25.4596 33.5719 25.0245 33.5719C24.5895 33.5719 24.2367 33.9246 24.2367 34.3597V43.3886C24.2367 44.8145 25.3966 45.9746 26.8223 45.9746H45.013C44.9524 46.0008 44.8892 46.0219 44.8231 46.0357L23.8699 50.4022C23.6061 50.4574 23.3361 50.4055 23.1089 50.2566C22.8832 50.1086 22.7292 49.8834 22.6749 49.6214L16.785 21.4237C16.7302 21.1621 16.7819 20.8931 16.9306 20.6664C17.0795 20.4392 17.3065 20.2838 17.5691 20.2289L24.2367 18.8398V26.8841C24.2367 27.3192 24.5894 27.672 25.0245 27.672C25.4595 27.672 25.8123 27.3192 25.8123 26.8841V17.8718C25.8123 17.87 25.8123 17.8682 25.8123 17.8664V14.586C25.8123 14.0289 26.2652 13.5756 26.8221 13.5756H41.6341V17.0519C41.6341 18.7024 42.9777 20.0452 44.6294 20.0452H49.2368V43.3885C49.2369 43.9457 48.7838 44.399 48.227 44.399Z" fill="white"/>
<path d="M40.6518 21.6455V20.5249C40.6518 19.3566 39.7018 18.4062 38.5341 18.4062H32.0474C30.8797 18.4062 29.9297 19.3567 29.9297 20.5249V27.0034C29.9297 28.1704 30.8797 29.1198 32.0474 29.1198H33.1681C33.4436 30.1263 33.9755 31.0492 34.734 31.807C35.9205 32.9924 37.4791 33.5852 39.0376 33.5852C40.5962 33.5852 42.1547 32.9924 43.3412 31.807C43.3412 31.807 43.3414 31.8069 43.3415 31.8067C45.7123 29.4355 45.7123 25.5772 43.3412 23.2057C42.5684 22.4336 41.6374 21.9147 40.6518 21.6455ZM32.0474 27.5441C31.7485 27.5441 31.5054 27.3016 31.5054 27.0034V20.5249C31.5054 20.2255 31.7486 19.9819 32.0474 19.9819H38.5341C38.828 19.9819 39.0763 20.2305 39.0763 20.5249V21.4285C37.5048 21.4186 35.9302 22.0105 34.734 23.2057C33.5841 24.3545 32.9509 25.8818 32.9509 27.5064C32.9509 27.5191 32.9518 27.5316 32.9519 27.5442H32.0474V27.5441ZM34.5265 27.5063C34.5265 26.3029 34.9956 25.1715 35.8475 24.3204C36.7271 23.4416 37.8823 23.0023 39.0377 23.0023C39.0505 23.0023 39.0634 23.0031 39.0762 23.0033V27.0034C39.0762 27.3016 38.833 27.5441 38.5341 27.5441H34.5273C34.5273 27.5316 34.5265 27.519 34.5265 27.5063ZM42.2276 30.6923C40.4688 32.4496 37.6067 32.4498 35.8476 30.6923C35.3926 30.2377 35.048 29.7027 34.8245 29.1198H38.5341C39.7018 29.1198 40.6518 28.1704 40.6518 27.0034V23.3002C41.2263 23.5192 41.7651 23.8584 42.2273 24.3201C43.9837 26.0769 43.9837 28.9355 42.2276 30.6923Z" fill="white"/>
<path d="M43.7934 35.4863H30.7175C30.2823 35.4863 29.9297 35.8391 29.9297 36.2741C29.9297 36.7092 30.2824 37.062 30.7175 37.062H43.7934C44.2285 37.062 44.5813 36.7092 44.5813 36.2741C44.5813 35.8391 44.2285 35.4863 43.7934 35.4863Z" fill="white"/>
<path d="M43.7934 39.9961H30.7175C30.2823 39.9961 29.9297 40.3488 29.9297 40.7839C29.9297 41.219 30.2824 41.5717 30.7175 41.5717H43.7934C44.2285 41.5717 44.5813 41.219 44.5813 40.7839C44.5813 40.3488 44.2285 39.9961 43.7934 39.9961Z" fill="white"/>
<path d="M25.0261 29.8262C24.5909 29.8262 24.2383 30.1789 24.2383 30.614V30.6296C24.2383 31.0647 24.591 31.4174 25.0261 31.4174C25.4612 31.4174 25.8139 31.0647 25.8139 30.6296V30.614C25.8139 30.1789 25.4612 29.8262 25.0261 29.8262Z" fill="white"/>
</g>
<defs>
<clipPath id="clip0_0_565">
<rect width="40" height="40" fill="white" transform="translate(13 12)"/>
</clipPath>
</defs>
</svg>
