<svg width="65" height="65" viewBox="0 0 65 65" fill="none" xmlns="http://www.w3.org/2000/svg">
<rect width="65" height="65" rx="5" fill="#5956E9"/>
<g clip-path="url(#clip0_0_191)">
<path d="M44.4813 20.9198C44.0637 21.042 43.8241 21.4795 43.9463 21.8972C44.247 22.9248 44.3995 23.9983 44.3995 25.0878C44.3995 30.0773 42.3348 32.6502 40.5132 34.9202C39.5314 36.1437 38.5975 37.3085 38.1287 38.6997H36.0021L37.2368 31.5709H38.6568C39.092 31.5709 39.4447 31.2182 39.4447 30.783C39.4447 30.3479 39.092 29.9952 38.6568 29.9952H27.3422C26.907 29.9952 26.5543 30.3479 26.5543 30.783C26.5543 31.2182 26.907 31.5709 27.3422 31.5709H28.762L29.9949 38.6997H27.8702C27.4013 37.3084 26.467 36.1434 25.4848 34.9199C23.6627 32.6499 21.5973 30.0771 21.5973 25.0878C21.5973 18.8047 26.7118 13.693 32.9984 13.693C35.6677 13.693 38.2627 14.6336 40.3053 16.3416C40.6391 16.6208 41.136 16.5764 41.4152 16.2427C41.6943 15.9088 41.65 15.412 41.3162 15.1328C38.9906 13.1881 36.0366 12.1172 32.9984 12.1172C25.8429 12.1172 20.0215 17.9358 20.0215 25.0878C20.0215 30.6313 22.3695 33.5562 24.256 35.9063C25.138 37.005 25.9179 37.9788 26.3187 39.0427C25.5706 39.4798 25.0666 40.2909 25.0666 41.2179C25.0666 42.2834 25.7324 43.1958 26.6697 43.5629C26.5027 43.8994 26.4082 44.278 26.4082 44.6784C26.4082 45.7615 27.0958 46.687 28.0574 47.0417V49.2674C28.0574 50.7096 29.2321 51.883 30.6761 51.883H35.3205C36.7645 51.883 37.9392 50.7096 37.9392 49.2674V47.0417C38.9009 46.6869 39.5884 45.7615 39.5884 44.6784C39.5884 44.2781 39.4941 43.8996 39.3271 43.5632C40.2655 43.1963 40.9322 42.2837 40.9322 41.2179C40.9322 40.2913 40.4281 39.4805 39.6798 39.0433C40.0805 37.9791 40.8603 37.0052 41.742 35.9064C43.628 33.5563 45.9751 30.6314 45.9751 25.0878C45.9751 23.8484 45.8013 22.6261 45.4585 21.4547C45.3365 21.037 44.8988 20.7973 44.4813 20.9198ZM30.3611 31.5709H35.6375L34.4028 38.6997H31.594L30.3611 31.5709ZM37.0695 45.6208H36.2902C35.8551 45.6208 35.5023 45.9735 35.5023 46.4087C35.5023 46.8438 35.8551 47.1966 36.2902 47.1966H36.3635V49.2673C36.3635 49.8407 35.8957 50.3071 35.3206 50.3071H30.6762C30.1011 50.3071 29.6333 49.8407 29.6333 49.2673V47.1831C30.0008 47.1164 30.2797 46.7954 30.2797 46.4086C30.2797 45.9734 29.927 45.6207 29.4918 45.6207H28.9273C28.4071 45.6207 27.984 45.198 27.984 44.6783C27.984 44.1586 28.4071 43.7359 28.9273 43.7359H37.0695C37.5896 43.7359 38.0127 44.1586 38.0127 44.6783C38.0127 45.198 37.5896 45.6208 37.0695 45.6208ZM38.411 42.1602H37.0695H28.9273H27.5857C27.0655 42.1602 26.6424 41.7374 26.6424 41.2178C26.6424 40.6982 27.0655 40.2754 27.5857 40.2754H30.9272C30.928 40.2754 30.9289 40.2755 30.9298 40.2755C30.9306 40.2755 30.9316 40.2754 30.9324 40.2754H35.0642C35.0651 40.2754 35.066 40.2755 35.0669 40.2755C35.0677 40.2755 35.0686 40.2754 35.0695 40.2754H38.4109C38.9323 40.2754 39.3564 40.6981 39.3564 41.2178C39.3565 41.7374 38.9323 42.1602 38.411 42.1602Z" fill="white"/>
<path d="M52.2129 25.8125H49.532C49.0969 25.8125 48.7441 26.1652 48.7441 26.6004C48.7441 27.0355 49.0969 27.3883 49.532 27.3883H52.2129C52.648 27.3883 53.0008 27.0355 53.0008 26.6004C53.0008 26.1652 52.648 25.8125 52.2129 25.8125Z" fill="white"/>
<path d="M49.9227 18.5949C50.1243 18.5949 50.3258 18.518 50.4797 18.3642L52.3746 16.4702C52.6824 16.1626 52.6825 15.6637 52.3749 15.356C52.0672 15.0481 51.5684 15.048 51.2607 15.3556L49.3657 17.2496C49.0579 17.5572 49.0578 18.0561 49.3654 18.3638C49.5193 18.5178 49.721 18.5949 49.9227 18.5949Z" fill="white"/>
<path d="M50.4796 34.0295C50.1718 33.7218 49.673 33.722 49.3654 34.0298C49.0578 34.3375 49.0579 34.8364 49.3657 35.144L51.2607 37.038C51.4145 37.1917 51.6161 37.2686 51.8176 37.2686C52.0194 37.2686 52.2211 37.1916 52.3749 37.0377C52.6825 36.7299 52.6824 36.231 52.3746 35.9235L50.4796 34.0295Z" fill="white"/>
<path d="M16.4688 25.8125H13.7879C13.3527 25.8125 13 26.1652 13 26.6003C13 27.0355 13.3527 27.3882 13.7879 27.3882H16.4688C16.9039 27.3882 17.2566 27.0355 17.2566 26.6003C17.2566 26.1652 16.9039 25.8125 16.4688 25.8125Z" fill="white"/>
<path d="M15.5185 18.3641C15.6723 18.5178 15.8739 18.5947 16.0754 18.5947C16.2771 18.5947 16.4789 18.5177 16.6327 18.3638C16.9403 18.056 16.9402 17.5571 16.6324 17.2496L14.7374 15.3556C14.4296 15.048 13.9307 15.0481 13.6232 15.356C13.3156 15.6637 13.3157 16.1625 13.6235 16.4701L15.5185 18.3641Z" fill="white"/>
<path d="M15.5185 34.0294L13.6235 35.9235C13.3157 36.2311 13.3156 36.73 13.6232 37.0377C13.7771 37.1916 13.9787 37.2687 14.1805 37.2687C14.382 37.2687 14.5836 37.1918 14.7374 37.038L16.6324 35.144C16.9402 34.8365 16.9403 34.3376 16.6327 34.0298C16.3251 33.7219 15.8262 33.7219 15.5185 34.0294Z" fill="white"/>
<path d="M33.0084 45.6211H32.993C32.5578 45.6211 32.2051 45.9738 32.2051 46.409C32.2051 46.8441 32.5578 47.1969 32.993 47.1969H33.0084C33.4436 47.1969 33.7963 46.8441 33.7963 46.409C33.7963 45.9738 33.4436 45.6211 33.0084 45.6211Z" fill="white"/>
<path d="M42.6151 18.9533C42.7707 19.1478 42.9997 19.249 43.2308 19.249C43.4034 19.249 43.5773 19.1925 43.7225 19.0763C44.0623 18.8045 44.1173 18.3088 43.8456 17.9689L43.8367 17.9578C43.5649 17.6181 43.0691 17.563 42.7293 17.8348C42.3895 18.1066 42.3345 18.6023 42.6063 18.9422L42.6151 18.9533Z" fill="white"/>
</g>
<defs>
<clipPath id="clip0_0_191">
<rect width="40" height="40" fill="white" transform="translate(13 12)"/>
</clipPath>
</defs>
</svg>
