<svg width="17" height="17" viewBox="0 0 17 17" fill="none" xmlns="http://www.w3.org/2000/svg">
<path d="M5.125 1.78125L6.375 4.78125C6.59375 5.28125 6.46875 5.875 6.03125 6.21875L4.5 7.5C5.53125 9.6875 7.3125 11.4688 9.5 12.5L10.7812 10.9688C11.125 10.5312 11.7188 10.4062 12.2188 10.625L15.2188 11.875C15.8125 12.0938 16.0938 12.75 15.9375 13.3438L15.1875 16.0938C15.0312 16.625 14.5625 17 14 17C6.25 17 0 10.75 0 3C0 2.4375 0.375 1.96875 0.90625 1.8125L3.65625 1.0625C4.25 0.90625 4.90625 1.1875 5.125 1.78125Z" fill="#5956E9"/>
</svg>
