<svg width="40" height="40" viewBox="0 0 40 40" fill="none" xmlns="http://www.w3.org/2000/svg">
<rect width="40" height="40" rx="5" fill="#D2042D"/>
<path d="M27.25 11.75C27.9141 11.75 28.5 12.3359 28.5 13.0391V28C28.5 28.7031 27.9141 29.25 27.25 29.25H12.2109C11.5469 29.25 11 28.7031 11 28V13.0391C11 12.3359 11.5469 11.75 12.2109 11.75H27.25ZM16.2734 26.75V18.4297H13.6953V26.75H16.2734ZM14.9844 17.2578C15.8047 17.2578 16.4688 16.5938 16.4688 15.7734C16.4688 14.9531 15.8047 14.25 14.9844 14.25C14.125 14.25 13.4609 14.9531 13.4609 15.7734C13.4609 16.5938 14.125 17.2578 14.9844 17.2578ZM26 26.75V22.1797C26 19.9531 25.4922 18.1953 22.875 18.1953C21.625 18.1953 20.7656 18.8984 20.4141 19.5625H20.375V18.4297H17.9141V26.75H20.4922V22.6484C20.4922 21.5547 20.6875 20.5 22.0547 20.5C23.3828 20.5 23.3828 21.75 23.3828 22.6875V26.75H26Z" fill="white"/>
</svg>
