<svg width="40" height="40" viewBox="0 0 40 40" fill="none" xmlns="http://www.w3.org/2000/svg">
<rect width="40" height="40" rx="5" fill="#D2042D"/>
<path d="M19.75 16.0078C22.2109 16.0078 24.2422 18.0391 24.2422 20.5C24.2422 23 22.2109 24.9922 19.75 24.9922C17.25 24.9922 15.2578 23 15.2578 20.5C15.2578 18.0391 17.25 16.0078 19.75 16.0078ZM19.75 23.4297C21.3516 23.4297 22.6406 22.1406 22.6406 20.5C22.6406 18.8984 21.3516 17.6094 19.75 17.6094C18.1094 17.6094 16.8203 18.8984 16.8203 20.5C16.8203 22.1406 18.1484 23.4297 19.75 23.4297ZM25.4531 15.8516C25.4531 15.2656 24.9844 14.7969 24.3984 14.7969C23.8125 14.7969 23.3438 15.2656 23.3438 15.8516C23.3438 16.4375 23.8125 16.9062 24.3984 16.9062C24.9844 16.9062 25.4531 16.4375 25.4531 15.8516ZM28.4219 16.9062C28.5 18.3516 28.5 22.6875 28.4219 24.1328C28.3438 25.5391 28.0312 26.75 27.0156 27.8047C26 28.8203 24.75 29.1328 23.3438 29.2109C21.8984 29.2891 17.5625 29.2891 16.1172 29.2109C14.7109 29.1328 13.5 28.8203 12.4453 27.8047C11.4297 26.75 11.1172 25.5391 11.0391 24.1328C10.9609 22.6875 10.9609 18.3516 11.0391 16.9062C11.1172 15.5 11.4297 14.25 12.4453 13.2344C13.5 12.2188 14.7109 11.9062 16.1172 11.8281C17.5625 11.75 21.8984 11.75 23.3438 11.8281C24.75 11.9062 26 12.2188 27.0156 13.2344C28.0312 14.25 28.3438 15.5 28.4219 16.9062ZM26.5469 25.6562C27.0156 24.5234 26.8984 21.7891 26.8984 20.5C26.8984 19.25 27.0156 16.5156 26.5469 15.3438C26.2344 14.6016 25.6484 13.9766 24.9062 13.7031C23.7344 13.2344 21 13.3516 19.75 13.3516C18.4609 13.3516 15.7266 13.2344 14.5938 13.7031C13.8125 14.0156 13.2266 14.6016 12.9141 15.3438C12.4453 16.5156 12.5625 19.25 12.5625 20.5C12.5625 21.7891 12.4453 24.5234 12.9141 25.6562C13.2266 26.4375 13.8125 27.0234 14.5938 27.3359C15.7266 27.8047 18.4609 27.6875 19.75 27.6875C21 27.6875 23.7344 27.8047 24.9062 27.3359C25.6484 27.0234 26.2734 26.4375 26.5469 25.6562Z" fill="white"/>
</svg>
