<svg width="89" height="100" viewBox="0 0 89 100" fill="none" xmlns="http://www.w3.org/2000/svg">
<g clip-path="url(#clip0_0_556)">
<path d="M44.2479 11.5024C19.8104 11.5024 0 31.3128 0 55.7503C0 80.1878 19.8104 100 44.2479 100C68.6854 100 88.4977 80.1878 88.4977 55.7503C88.4977 31.3128 68.6854 11.5024 44.2479 11.5024Z" fill="#A5DCF0"/>
<path d="M79.7656 82.1504C79.7405 80.6578 79.2098 79.2177 78.2604 78.0657C77.311 76.9136 75.9989 76.1175 74.5386 75.8076C73.0782 75.4976 71.5559 75.6921 70.2204 76.3593C68.8849 77.0264 67.8151 78.1268 67.1858 79.4806C66.5925 78.9533 65.8954 78.556 65.1393 78.3143C64.3832 78.0726 63.5849 77.9919 62.7958 78.0772C62.0066 78.1626 61.2441 78.4122 60.5572 78.81C59.8703 79.2078 59.2743 79.745 58.8075 80.387C58.4387 80.2378 58.0571 80.1227 57.6673 80.043C56.6964 79.8501 55.6941 79.8843 54.7386 80.143C53.7831 80.4017 52.9004 80.8779 52.1594 81.5343C51.4185 82.1907 50.8394 83.0096 50.4674 83.927C50.0955 84.8443 49.9407 85.8352 50.0152 86.8223C50.0898 87.8094 50.3916 88.7659 50.897 89.617C51.4025 90.4681 52.098 91.1907 52.9291 91.7285C53.7602 92.2662 54.7044 92.6044 55.6879 92.7167C56.6714 92.829 57.6675 92.7124 58.5985 92.3758C58.5985 92.4005 58.589 92.4233 58.5833 92.448C58.4168 93.2786 58.4239 94.1346 58.604 94.9623C58.7842 95.79 59.1336 96.5714 59.6303 97.2576C67.6595 94.2708 74.6526 89.024 79.7656 82.1504Z" fill="#D8EDEE"/>
<path d="M14.4651 84.7501C15.128 85.1012 15.8589 85.3052 16.6079 85.348C17.3569 85.3908 18.1063 85.2715 18.8049 84.9983C19.5036 84.725 20.135 84.3042 20.6562 83.7646C21.1774 83.225 21.576 82.5793 21.8248 81.8716C22.0736 81.1638 22.1668 80.4107 22.0979 79.6637C22.0291 78.9167 21.7999 78.1933 21.4259 77.543C21.052 76.8926 20.5421 76.3306 19.9311 75.8953C19.3201 75.46 18.6224 75.1617 17.8856 75.0207L17.9977 74.8193C18.5268 73.8217 18.7309 72.6838 18.5816 71.5645C18.4323 70.4452 17.937 69.4005 17.1649 68.5765C16.3928 67.7525 15.3826 67.1904 14.2754 66.9686C13.1681 66.7469 12.0193 66.8767 10.9895 67.3398C10.7437 66.6292 10.3327 65.987 9.79041 65.4662C9.24808 64.9453 8.58985 64.5606 7.86987 64.3438C7.14988 64.1269 6.3887 64.084 5.64892 64.2187C4.90914 64.3534 4.21189 64.6617 3.61451 65.1184C2.86762 64.2557 1.82655 63.7016 0.693787 63.564C2.08687 71.365 5.55685 78.6463 10.7386 84.6418C11.5705 84.4953 12.3476 84.1277 12.9886 83.5776C13.4054 84.0549 13.9058 84.4522 14.4651 84.7501ZM8.57422 75.5072C8.57422 75.3533 8.56282 75.1993 8.54762 75.0473C8.62743 75.1841 8.71484 75.3153 8.80795 75.4445C8.72688 75.4635 8.64833 75.4818 8.57232 75.4996L8.57422 75.5072Z" fill="#D8EDEE"/>
<path d="M42.2269 56.4077L36.471 89.0012L54.3108 87.9238L47.5211 56.0657L42.2269 56.4077Z" fill="#D8EDEE"/>
<path d="M57.4831 85.8775C57.7289 85.2006 57.7197 84.4573 57.457 83.7868C57.1943 83.1162 56.6962 82.5644 56.056 82.2347C56.4797 81.7577 56.793 81.193 56.9734 80.581C57.1538 79.969 57.197 79.3248 57.0998 78.6942C57.0026 78.0636 56.7674 77.4622 56.4111 76.9329C56.0548 76.4037 55.586 75.9596 55.0383 75.6323C54.4906 75.305 53.8775 75.1026 53.2426 75.0395C52.6076 74.9765 51.9666 75.0543 51.3653 75.2675C50.7639 75.4806 50.2169 75.8238 49.7635 76.2727C49.31 76.7215 48.9612 77.2649 48.7418 77.864C48.653 78.111 48.5862 78.3654 48.5423 78.6241C48.3503 78.5221 48.1516 78.4332 47.9475 78.3581C46.8841 77.9713 45.7158 77.9878 44.6638 78.4044C43.6117 78.821 42.7488 79.6088 42.2385 80.6187C41.7281 81.6287 41.6057 82.7906 41.8944 83.8847C42.183 84.9788 42.8628 85.9292 43.8049 86.5559C43.3771 86.9115 43.0285 87.3527 42.7812 87.8511C42.534 88.3495 42.3938 88.894 42.3694 89.4498C42.3451 90.0056 42.4372 90.5603 42.6399 91.0784C42.8426 91.5965 43.1514 92.0664 43.5465 92.4581C43.4047 92.7005 43.2845 92.9548 43.1873 93.2182C42.9508 93.8707 42.8685 94.5691 42.9467 95.2587C43.0249 95.9483 43.2616 96.6104 43.6382 97.1934C44.0148 97.7763 44.5211 98.2643 45.1176 98.619C45.7141 98.9738 46.3846 99.1858 47.0766 99.2384C47.7686 99.2911 48.4634 99.1829 49.1067 98.9225C49.75 98.662 50.3243 98.2562 50.7848 97.737C51.2452 97.2177 51.5793 96.5989 51.7609 95.9291C51.9425 95.2593 51.9667 94.5565 51.8317 93.8757L51.8811 93.8947C52.7726 94.2183 53.746 94.2391 54.6505 93.9539C55.5551 93.6688 56.3406 93.0936 56.8854 92.3173C57.4303 91.5409 57.7043 90.6067 57.6649 89.6591C57.6256 88.7115 57.2752 87.8032 56.6679 87.0747C57.0352 86.7498 57.3154 86.3383 57.4831 85.8775Z" fill="#D8EDEE"/>
<path d="M82.7575 65.2684C82.6016 65.4761 82.4649 65.6974 82.3489 65.9297C81.8853 65.4666 81.3277 65.1085 80.7138 64.8796C80.0999 64.6506 79.444 64.556 78.7905 64.6023C78.1369 64.6486 77.5009 64.8347 76.9254 65.1479C76.3499 65.4612 75.8484 65.8943 75.4547 66.418C74.839 67.2383 74.5166 68.2416 74.539 69.267C74.5614 70.2924 74.9273 71.2806 75.5782 72.0732C75.07 72.2855 74.612 72.6019 74.2337 73.0021C73.8554 73.4023 73.5652 73.8774 73.3818 74.3966C73.1985 74.9159 73.126 75.4679 73.1692 76.0169C73.2123 76.5659 73.3701 77.0998 73.6323 77.584C73.4272 77.7711 73.2395 77.9766 73.0718 78.1978C72.547 78.8975 72.2398 79.7363 72.1886 80.6094C72.1374 81.4825 72.3444 82.3514 72.7837 83.1077C73.223 83.864 73.8753 84.4742 74.6592 84.8622C75.443 85.2502 76.3238 85.3989 77.1915 85.2896C82.6183 79.2522 86.2737 71.8342 87.7552 63.8527C86.8819 63.5098 85.9204 63.4627 85.0177 63.7183C84.1151 63.974 83.3212 64.5185 82.7575 65.2684Z" fill="#D8EDEE"/>
<path d="M40.2279 80.8299C40.454 80.4967 40.6277 80.1307 40.7429 79.7449C41.313 77.8446 40.4218 75.8854 38.7343 75.3742C37.2141 74.9087 35.559 75.7904 34.8312 77.3714C33.4117 77.3277 32.0321 78.3596 31.5494 79.9482C31.357 80.5356 31.3195 81.1627 31.4403 81.7689C31.5612 82.3751 31.8363 82.9398 32.2392 83.4086C31.8737 83.5587 31.547 83.7897 31.2837 84.0843C31.0204 84.3789 30.8273 84.7294 30.719 85.1093C30.3161 86.4395 30.9432 87.8001 32.1195 88.1498C32.2221 88.1797 32.3269 88.2013 32.433 88.2144C32.429 88.2229 32.4258 88.2318 32.4235 88.241C31.9884 89.6681 32.6649 91.137 33.9285 91.5209C35.1922 91.9047 36.5718 91.0591 37.0051 89.632C37.0813 89.3815 37.1241 89.1221 37.1324 88.8605L37.2293 88.8928C39.2531 89.5066 41.4555 88.1536 42.1491 85.8713C42.7743 83.7924 41.9249 81.6508 40.2279 80.8299Z" fill="#D8EDEE"/>
<path d="M34.5102 93.9327C35.5377 94.0982 36.5901 94.0113 37.5766 93.6795C38.5631 93.3478 39.4542 92.7812 40.173 92.0284C40.8918 91.2757 41.4167 90.3595 41.7027 89.3588C41.9886 88.358 42.027 87.3028 41.8143 86.2839C41.6017 85.2651 41.1446 84.3132 40.4823 83.5104C39.8199 82.7075 38.9723 82.0777 38.0125 81.6753C37.0527 81.2729 36.0093 81.1099 34.9725 81.2004C33.9356 81.2909 32.9364 81.6321 32.0607 82.1947C32.0607 82.17 32.0607 82.1453 32.0607 82.1206C32.0249 80.7674 31.544 79.4636 30.6926 78.4112C29.8411 77.3587 28.6665 76.6162 27.3506 76.2986C26.0346 75.981 24.6507 76.1059 23.4129 76.6541C22.1751 77.2022 21.1525 78.1431 20.5033 79.331C19.8911 79.0221 19.2129 78.8667 18.5273 78.8782C17.8417 78.8897 17.1691 79.0678 16.5676 79.3972C15.9662 79.7265 15.4538 80.1972 15.0748 80.7687C14.6958 81.3401 14.4614 81.9952 14.392 82.6774C13.5809 82.3801 12.7166 82.2557 11.8545 82.3123C10.9925 82.3689 10.1519 82.6053 9.38666 83.0062C14.5109 89.5593 21.3751 94.5389 29.1951 97.376C29.2768 97.376 29.3566 97.376 29.4383 97.376C30.5244 97.3469 31.5794 97.007 32.4783 96.3968C33.3772 95.7865 34.0823 94.9314 34.5102 93.9327Z" fill="#D8EDEE"/>
<path d="M78.5895 83.6519C77.908 83.097 77.1224 82.6838 76.2791 82.4367C75.4357 82.1895 74.5514 82.1134 73.6782 82.2127C72.8049 82.312 71.9604 82.5847 71.194 83.015C70.4276 83.4452 69.7549 84.0242 69.2154 84.7179C68.7554 84.0721 68.1653 83.5297 67.4832 83.1254C66.801 82.7212 66.0419 82.4641 65.2545 82.3707C64.4671 82.2773 63.6688 82.3496 62.911 82.583C62.1532 82.8164 61.4526 83.2057 60.8542 83.726C60.0005 83.1308 59.0149 82.752 57.9822 82.6224C56.9496 82.4928 55.9009 82.6163 54.9266 82.9821C53.9523 83.3479 53.0815 83.9451 52.3893 84.7223C51.6972 85.4995 51.2043 86.4333 50.9533 87.4433C50.7023 88.4534 50.7006 89.5093 50.9484 90.5201C51.1962 91.5309 51.6861 92.4662 52.3758 93.2456C53.0655 94.025 53.9344 94.625 54.9075 94.9939C55.8807 95.3628 56.929 95.4896 57.962 95.3633L57.9297 95.4298C57.5638 96.2431 57.379 97.1262 57.3881 98.0179C65.7153 95.4207 73.0906 90.4232 78.5895 83.6519Z" fill="white"/>
<path d="M16.1045 88.1599L16.171 88.1276C17.3615 87.4836 18.3067 86.4654 18.8605 85.2304C19.4143 83.9955 19.5458 82.6124 19.2348 81.2952C18.9237 79.9779 18.1875 78.7998 17.1397 77.943C16.092 77.0862 14.7912 76.5983 13.4384 76.5549C13.4378 75.8691 13.2704 75.1938 12.9507 74.5872C12.631 73.9806 12.1685 73.4608 11.6031 73.0727C11.0377 72.6847 10.3864 72.4399 9.70541 72.3596C9.02438 72.2793 8.33404 72.3659 7.69392 72.6118C7.51533 71.0954 6.78233 69.6986 5.63592 68.69C4.4895 67.6815 3.01065 67.1324 1.48383 67.1485C4.19878 77.3081 10.4387 86.1709 19.088 92.1523C18.8809 91.3222 18.5105 90.5418 17.9982 89.8566C17.4859 89.1713 16.8421 88.5952 16.1045 88.1618V88.1599Z" fill="white"/>
<path d="M42.9344 62.5761L38.4707 85.3737L52.3066 84.6193L47.0428 62.3367L42.9344 62.5761Z" fill="white"/>
<path d="M51.8317 97.1362L51.8811 97.1552C52.7729 97.4794 53.7468 97.5006 54.6519 97.2155C55.5571 96.9304 56.343 96.3549 56.888 95.5781C57.4331 94.8013 57.7069 93.8664 57.6671 92.9183C57.6273 91.9702 57.2761 91.0616 56.6679 90.3332C57.0363 90.0079 57.3167 89.5948 57.4831 89.1322C57.7291 88.4551 57.7198 87.7115 57.4572 87.0406C57.1945 86.3698 56.6963 85.8176 56.056 85.4875C56.4796 85.0104 56.7926 84.4457 56.9728 83.8336C57.1529 83.2216 57.1958 82.5773 57.0982 81.9468C57.0006 81.3163 56.7651 80.7151 56.4083 80.1861C56.0516 79.6572 55.5825 79.2135 55.0345 78.8867C54.4865 78.56 53.8731 78.3582 53.2382 78.2959C52.6032 78.2335 51.9623 78.3122 51.3612 78.5261C50.7602 78.74 50.2137 79.084 49.7609 79.5335C49.3081 79.983 48.9601 80.5269 48.7418 81.1264C48.6519 81.373 48.5851 81.6275 48.5423 81.8865C48.3503 81.7844 48.1516 81.6955 47.9475 81.6204C46.8841 81.2337 45.7158 81.2502 44.6638 81.6668C43.6117 82.0834 42.7488 82.8712 42.2385 83.8811C41.7281 84.891 41.6057 86.053 41.8944 87.1471C42.183 88.2412 42.8628 89.1915 43.8049 89.8182C43.3771 90.1739 43.0285 90.6151 42.7812 91.1134C42.534 91.6118 42.3938 92.1564 42.3694 92.7122C42.3451 93.2679 42.4372 93.8227 42.6399 94.3407C42.8426 94.8588 43.1514 95.3288 43.5465 95.7205C43.4047 95.9628 43.2845 96.2172 43.1873 96.4806C42.9815 97.0484 42.8923 97.6518 42.925 98.2548C42.9576 98.8579 43.1115 99.4481 43.3773 99.9904C43.6681 99.9904 43.9588 100.002 44.2515 100.002C46.7509 100.001 49.2458 99.7908 51.71 99.3728C51.939 98.6495 51.9809 97.88 51.8317 97.1362Z" fill="white"/>
<path d="M86.123 67.6513C85.129 67.9042 84.2487 68.4835 83.6233 69.2963C82.9979 70.1092 82.6636 71.1085 82.674 72.1341C82.1452 71.9811 81.5902 71.9406 81.0448 72.0151C80.4994 72.0897 79.9757 72.2777 79.5073 72.567C79.039 72.8563 78.6365 73.2405 78.3257 73.6948C78.0149 74.1492 77.8027 74.6636 77.7028 75.2049C77.4257 75.2219 77.1509 75.2652 76.8819 75.3341C75.8081 75.6052 74.8739 76.2667 74.2615 77.1895C73.6492 78.1123 73.4029 79.2302 73.5705 80.3249C73.7381 81.4197 74.3077 82.4126 75.168 83.11C76.0284 83.8073 77.1178 84.159 78.2235 84.0963C82.2683 79.254 85.2283 73.6011 86.904 67.5183C86.6403 67.5399 86.3789 67.5844 86.123 67.6513Z" fill="white"/>
<path d="M41.2047 83.1118C41.2933 82.7187 41.3234 82.3146 41.294 81.9127C41.1476 79.9307 39.6046 78.4276 37.845 78.5568C36.2544 78.6746 35.0326 80.0884 34.9243 81.8272C33.5827 82.2966 32.6667 83.756 32.7883 85.4111C32.8216 86.0287 33.0129 86.6274 33.344 87.1498C33.6751 87.6722 34.1348 88.1008 34.6791 88.3945C34.39 88.6652 34.1665 88.9983 34.0255 89.3685C33.8846 89.7386 33.83 90.136 33.8658 90.5304C33.9665 91.9119 35.044 92.959 36.2677 92.8678C36.3748 92.8595 36.4809 92.8423 36.5851 92.8165V92.845C36.6953 94.3329 37.8526 95.4598 39.1714 95.3628C40.4902 95.2659 41.4707 93.9794 41.3605 92.4934C41.3416 92.2342 41.2886 91.9786 41.2028 91.7333H41.3035C43.4128 91.5775 44.9805 89.5233 44.8057 87.1442C44.6461 84.9588 43.0821 83.2657 41.2047 83.1118Z" fill="white"/>
<path d="M38.3375 99.3333C39.327 99.3059 40.2968 99.05 41.171 98.5856C42.0453 98.1212 42.8003 97.4609 43.377 96.6563C43.9537 95.8517 44.3365 94.9247 44.4955 93.9476C44.6545 92.9705 44.5853 91.9699 44.2934 91.024C44.0015 90.0781 43.4948 89.2125 42.8129 88.4949C42.131 87.7773 41.2924 87.2271 40.3626 86.8874C39.4328 86.5477 38.437 86.4276 37.4531 86.5366C36.4692 86.6455 35.5238 86.9806 34.6908 87.5155V87.4414C34.655 86.0882 34.1742 84.7844 33.3227 83.732C32.4712 82.6795 31.2967 81.937 29.9807 81.6194C28.6647 81.3018 27.2808 81.4267 26.043 81.9749C24.8052 82.523 23.7826 83.4639 23.1334 84.6518C22.5211 84.3425 21.8428 84.1867 21.1569 84.1981C20.471 84.2094 19.7982 84.3874 19.1964 84.7168C18.5947 85.0462 18.0822 85.517 17.703 86.0887C17.3239 86.6604 17.0895 87.3157 17.0202 87.9982C15.9513 87.6045 14.794 87.5157 13.6776 87.7417C20.1147 93.9066 28.2683 97.9771 37.0643 99.4169C37.0909 99.3618 37.1175 99.3086 37.1422 99.2535C37.5372 99.3177 37.9374 99.3444 38.3375 99.3333Z" fill="white"/>
<path d="M58.7266 94.275C57.5533 94.3046 56.4108 94.6563 55.4239 95.2916V95.2175C55.3869 93.8646 54.9052 92.5616 54.0534 91.5098C53.2016 90.4581 52.027 89.7162 50.7113 89.3989C49.3956 89.0816 48.012 89.2066 46.7745 89.7544C45.5369 90.3023 44.5142 91.2425 43.8646 92.4298C43.2526 92.12 42.5744 91.9638 41.8886 91.9748C41.2028 91.9857 40.5299 92.1635 39.9282 92.4928C39.3265 92.8221 38.8141 93.293 38.4351 93.8647C38.0562 94.4364 37.8222 95.0919 37.7533 95.7743C36.5041 95.3159 35.1403 95.2728 33.8647 95.6515C32.589 96.0301 31.4696 96.8103 30.6729 97.876C41.3439 101.303 52.9166 100.563 63.0649 95.8066C61.8583 94.7766 60.3124 94.2309 58.7266 94.275Z" fill="white"/>
<path d="M72.3621 33.9995C72.1946 34.0331 72.0314 34.0853 71.8756 34.1553C71.8678 34.0584 71.8545 33.9619 71.8357 33.8665C71.7379 33.3596 71.4868 32.8949 71.1164 32.5353C70.746 32.1757 70.2742 31.9384 69.7646 31.8555C69.2551 31.7726 68.7324 31.8481 68.2671 32.0718C67.8018 32.2955 67.4164 32.6566 67.163 33.1064C66.8733 32.8135 66.5089 32.6055 66.1094 32.505C65.7098 32.4045 65.2904 32.4154 64.8966 32.5364C64.5028 32.6574 64.1497 32.884 63.8756 33.1915C63.6014 33.499 63.4167 33.8757 63.3415 34.2807C63.0426 34.2248 62.7359 34.2248 62.437 34.2807C61.9608 34.3732 61.5218 34.602 61.1733 34.9394C60.8248 35.2767 60.5819 35.7081 60.474 36.181H74.9997C75.0036 35.8529 74.9345 35.528 74.7973 35.2298C74.6602 34.9317 74.4584 34.6679 74.2066 34.4574C73.9548 34.2469 73.6594 34.0951 73.3417 34.0129C73.024 33.9308 72.692 33.9203 72.3697 33.9824L72.3621 33.9995ZM67.3454 36.0537L67.4138 35.9606C67.4613 36.0157 67.5107 36.0708 67.562 36.124C67.4917 36.0974 67.4195 36.0746 67.3454 36.0537Z" fill="white"/>
<path d="M25.7375 43.5883C25.6067 43.6148 25.4793 43.6555 25.3575 43.71C25.3575 43.6358 25.3404 43.5598 25.3271 43.4838C25.2498 43.0887 25.0533 42.7267 24.764 42.4466C24.4748 42.1665 24.1066 41.9817 23.7092 41.9171C23.3118 41.8525 22.9041 41.9112 22.5411 42.0854C22.178 42.2595 21.877 42.5406 21.6785 42.8909C21.453 42.6591 21.1678 42.494 20.8545 42.4137C20.5412 42.3334 20.2118 42.3409 19.9026 42.4356C19.5933 42.5302 19.3161 42.7083 19.1014 42.9502C18.8867 43.1921 18.7428 43.4885 18.6856 43.8069C18.4518 43.7651 18.2125 43.7651 17.9787 43.8069C17.6065 43.8801 17.2636 44.0598 16.9917 44.3243C16.7197 44.5888 16.5306 44.9266 16.4471 45.2967H27.786C27.7883 45.1774 27.7775 45.0582 27.7537 44.9413C27.6646 44.4952 27.4025 44.1024 27.0247 43.8489C26.647 43.5954 26.1842 43.5017 25.7375 43.5883ZM21.8211 45.1922L21.8743 45.1181C21.9104 45.1618 21.9503 45.2055 21.9902 45.2454C21.9351 45.2264 21.8781 45.2074 21.8211 45.1922Z" fill="white"/>
<path d="M45.0978 53.0559C41.8484 53.1376 39.0702 56.7975 39.1367 59.4028C39.2032 62.0081 45.5748 71.8572 45.5748 71.8572C47.3725 67.3459 51.4371 61.6508 51.3725 59.0931C51.3079 56.5353 48.3416 52.9723 45.0978 53.0559Z" fill="#F05A2A"/>
<path d="M45.0987 53.2436C42.4383 53.3101 40.1732 56.3031 40.2264 58.4295C40.2796 60.5559 45.4787 68.6092 45.4787 68.6092C46.9496 64.9227 50.2731 60.2689 50.2199 58.1767C50.1667 56.0845 47.7591 53.1752 45.0987 53.2436Z" fill="#F8EC3A"/>
<path d="M45.0991 53.2206C43.0525 53.2719 41.2985 55.5788 41.346 57.2112C41.3935 58.8435 45.3993 65.0555 45.3993 65.0555C46.5395 62.2146 49.0915 58.6288 49.0516 57.0173C49.0117 55.4059 47.1457 53.1693 45.0991 53.2206Z" fill="white"/>
<path d="M42.6277 54.4066C40.507 53.9866 38.1716 55.9591 37.8352 57.658C37.4989 59.3568 40.1973 66.6767 40.1973 66.6767C42.0234 64.0163 45.4895 60.9093 45.8202 59.239C46.1508 57.5687 44.7503 54.8247 42.6277 54.4066Z" fill="#F05A2A"/>
<path d="M42.6063 54.5282C40.8732 54.1842 38.9654 55.7957 38.6898 57.1886C38.4143 58.5815 40.6224 64.5597 40.6224 64.5597C42.1122 62.382 44.9474 59.8451 45.2154 58.4788C45.4833 57.1125 44.3393 54.8702 42.6063 54.5282Z" fill="#F8EC3A"/>
<path d="M42.6106 54.5147C41.2804 54.2487 39.8039 55.4914 39.5911 56.5613C39.3783 57.6311 41.0809 62.2412 41.0809 62.2412C42.2211 60.5633 44.414 58.6079 44.6211 57.557C44.8283 56.5062 43.9465 54.7864 42.6106 54.5147Z" fill="white"/>
<path d="M43.6019 53.8919C42.342 54.4391 41.8347 56.3128 42.2717 57.3123C42.7088 58.3119 46.7659 61.1699 46.7659 61.1699C46.7545 59.1195 47.4443 56.2444 47.0148 55.2525C46.5853 54.2605 44.8618 53.3446 43.6019 53.8919Z" fill="#F05A2A"/>
<path d="M43.6338 53.9661C42.6039 54.4126 42.1896 55.9443 42.5469 56.769C42.9041 57.5937 46.2201 59.9177 46.2201 59.9177C46.2201 58.2417 46.775 55.8911 46.4234 55.0815C46.0719 54.272 44.6619 53.5176 43.6338 53.9661Z" fill="#F8EC3A"/>
<path d="M43.6298 53.9562C42.8373 54.3002 42.5162 55.4764 42.7917 56.1168C43.0673 56.7572 45.6231 58.5454 45.6231 58.5454C45.6231 57.2532 46.0507 55.4441 45.779 54.8189C45.5072 54.1937 44.4222 53.6123 43.6298 53.9562Z" fill="white"/>
<path d="M50.6359 11.9622L44.175 0L38.2841 11.9014C42.3812 11.3497 46.535 11.3702 50.6264 11.9622H50.6359Z" fill="#F7CF9C"/>
<path d="M36.376 15.7819L36.3456 15.8408C36.3323 16.9809 36.3456 28.0576 36.3456 28.0576H52.7298V15.8427L50.6395 11.9623C46.5481 11.3702 42.3942 11.3498 38.2972 11.9015L36.3969 15.742C36.3836 15.7553 36.3836 15.7686 36.376 15.7819Z" fill="#F7CF9C"/>
<path d="M44.1815 0L47.1022 11.5917C48.2931 11.6677 49.4712 11.7899 50.6367 11.9584L44.1815 0Z" fill="#EABD8C"/>
<path d="M48.1724 18.8357H52.7331V15.8428L50.6428 11.9625C49.4786 11.794 48.3004 11.6717 47.1083 11.5957L48.1781 15.8428L48.1724 18.8357Z" fill="#EABD8C"/>
<path d="M44.1809 0L38.2901 11.9014C39.4417 11.7481 40.6059 11.6379 41.7828 11.5708L44.1809 0Z" fill="#EABD8C"/>
<path d="M36.3397 18.8355H40.9004V15.8426L41.784 11.5708C40.6071 11.6354 39.4429 11.7456 38.2913 11.9014L36.3416 15.8426L36.3397 18.8355Z" fill="#EABD8C"/>
<path d="M50.765 44.0867H38.3087C37.2255 44.0867 36.3476 44.7955 36.3457 45.6696V53.4835C36.3457 54.3577 37.2236 55.0646 38.3087 55.0665H50.765C51.85 55.0665 52.7299 54.3576 52.728 53.4854V45.6658C52.7299 44.7955 51.8519 44.0867 50.765 44.0867Z" fill="#9A0050"/>
<path d="M52.6539 15.8427C52.6809 15.9599 52.6956 16.0797 52.6976 16.2C52.6976 17.2356 51.6638 18.0774 50.3906 18.0774C49.1174 18.0774 48.2509 17.3382 48.2509 16.3026C48.2509 16.1809 48.1008 15.9586 48.1274 15.8427C48.0609 17.4161 45.8471 17.9178 44.4865 17.9178C43.1259 17.9178 41.0356 17.4294 40.9064 15.9358C40.8456 16.9278 39.846 17.7183 38.6127 17.7183C37.4726 17.7183 36.5357 17.0475 36.3457 16.1638V45.8556H52.728V15.8313L52.6539 15.8427Z" fill="#FFD874"/>
<path d="M47.165 5.5279L44.1816 0L41.4471 5.5279H47.165Z" fill="white"/>
<path d="M36.3484 49.2966L52.7306 49.2947L52.7325 45.5398H36.3484V49.2966Z" fill="#D0D2D3"/>
<path d="M38.6127 17.3948C37.4726 17.3948 36.5357 16.724 36.3457 15.8423V45.5379H40.8741V15.8499C40.684 16.7278 39.7472 17.3948 38.6127 17.3948Z" fill="#FAC641"/>
<path d="M50.4496 17.3948C49.3094 17.3948 48.3593 16.724 48.1693 15.8423V45.5379H52.7299V15.8499C52.5342 16.7278 51.5897 17.3948 50.4496 17.3948Z" fill="#FAC641"/>
<path d="M48.1719 45.5398H40.8786V49.2966H48.1719V45.5398Z" fill="#F0F1F1"/>
<path d="M48.1719 49.2952H40.8786V55.0663H48.1719V49.2952Z" fill="#D80071"/>
</g>
<defs>
<clipPath id="clip0_0_556">
<rect width="88.4976" height="100" fill="white"/>
</clipPath>
</defs>
</svg>
