<svg width="54" height="54" viewBox="0 0 54 54" fill="none" xmlns="http://www.w3.org/2000/svg">
<rect width="54" height="54" rx="5" fill="white"/>
<g clip-path="url(#clip0_36_400)">
<path d="M27 20.4418C29.1374 20.4418 29.3883 20.4514 30.233 20.4895C31.0143 20.5244 31.4367 20.6546 31.7193 20.7658C32.0941 20.9119 32.3609 21.0834 32.6403 21.3628C32.9198 21.6423 33.0945 21.9091 33.2374 22.2838C33.3454 22.5665 33.4788 22.9889 33.5137 23.7701C33.5518 24.6149 33.5613 24.8658 33.5613 27.0032C33.5613 29.1405 33.5518 29.3914 33.5137 30.2362C33.4788 31.0175 33.3486 31.4399 33.2374 31.7225C33.0913 32.0973 32.9198 32.364 32.6403 32.6435C32.3609 32.923 32.0941 33.0977 31.7193 33.2406C31.4367 33.3486 31.0143 33.4819 30.233 33.5169C29.3883 33.555 29.1374 33.5645 27 33.5645C24.8626 33.5645 24.6118 33.555 23.767 33.5169C22.9857 33.4819 22.5633 33.3517 22.2807 33.2406C21.9059 33.0945 21.6391 32.923 21.3597 32.6435C21.0802 32.364 20.9055 32.0973 20.7626 31.7225C20.6546 31.4399 20.5212 31.0175 20.4863 30.2362C20.4482 29.3914 20.4387 29.1405 20.4387 27.0032C20.4387 24.8658 20.4482 24.6149 20.4863 23.7701C20.5212 22.9889 20.6515 22.5665 20.7626 22.2838C20.9087 21.9091 21.0802 21.6423 21.3597 21.3628C21.6391 21.0834 21.9059 20.9087 22.2807 20.7658C22.5633 20.6578 22.9857 20.5244 23.767 20.4895C24.6118 20.4482 24.8658 20.4418 27 20.4418ZM27 19C24.8277 19 24.5546 19.0095 23.7003 19.0476C22.8491 19.0857 22.268 19.2223 21.7598 19.4192C21.2326 19.6225 20.788 19.8988 20.3434 20.3434C19.8988 20.788 19.6256 21.2358 19.4192 21.7598C19.2223 22.268 19.0857 22.8491 19.0476 23.7035C19.0095 24.5546 19 24.8277 19 27C19 29.1723 19.0095 29.4454 19.0476 30.2997C19.0857 31.1509 19.2223 31.732 19.4192 32.2434C19.6225 32.7705 19.8988 33.2152 20.3434 33.6598C20.788 34.1044 21.2358 34.3775 21.7598 34.584C22.268 34.7809 22.8491 34.9174 23.7035 34.9555C24.5578 34.9936 24.8277 35.0032 27.0032 35.0032C29.1786 35.0032 29.4486 34.9936 30.3029 34.9555C31.154 34.9174 31.7352 34.7809 32.2465 34.584C32.7737 34.3807 33.2184 34.1044 33.663 33.6598C34.1076 33.2152 34.3807 32.7674 34.5871 32.2434C34.7841 31.7352 34.9206 31.154 34.9587 30.2997C34.9968 29.4454 35.0064 29.1755 35.0064 27C35.0064 24.8245 34.9968 24.5546 34.9587 23.7003C34.9206 22.8491 34.7841 22.268 34.5871 21.7566C34.3839 21.2295 34.1076 20.7848 33.663 20.3402C33.2184 19.8956 32.7706 19.6225 32.2465 19.416C31.7384 19.2191 31.1572 19.0826 30.3029 19.0445C29.4454 19.0095 29.1723 19 27 19Z" fill="#D2042D"/>
<path d="M26.9999 22.8936C24.7324 22.8936 22.8904 24.7324 22.8904 27.0031C22.8904 29.2739 24.7292 31.1127 26.9999 31.1127C29.2707 31.1127 31.1095 29.2739 31.1095 27.0031C31.1095 24.7324 29.2707 22.8936 26.9999 22.8936ZM26.9999 29.6677C25.5263 29.6677 24.3322 28.4735 24.3322 26.9999C24.3322 25.5263 25.5263 24.3322 26.9999 24.3322C28.4735 24.3322 29.6677 25.5263 29.6677 26.9999C29.6677 28.4735 28.4735 29.6677 26.9999 29.6677Z" fill="#D2042D"/>
<path d="M31.2716 23.6876C31.8013 23.6876 32.2307 23.2582 32.2307 22.7285C32.2307 22.1988 31.8013 21.7694 31.2716 21.7694C30.7419 21.7694 30.3125 22.1988 30.3125 22.7285C30.3125 23.2582 30.7419 23.6876 31.2716 23.6876Z" fill="#D2042D"/>
</g>
<defs>
<clipPath id="clip0_36_400">
<rect width="16" height="16" fill="white" transform="translate(19 19)"/>
</clipPath>
</defs>
</svg>
