<svg width="16" height="14" viewBox="0 0 16 14" fill="none" xmlns="http://www.w3.org/2000/svg">
<path d="M14.038 3.78727C14.0442 3.92807 14.0442 4.06247 14.0442 4.20327C14.0504 8.47208 10.9141 13.4001 5.17858 13.4001C3.48695 13.4001 1.82618 12.8945 0.400024 11.9473C0.646978 11.9793 0.893932 11.9921 1.14089 11.9921C2.54235 11.9921 3.90677 11.5057 5.01188 10.6033C3.67833 10.5777 2.5053 9.67529 2.09783 8.35688C2.56704 8.45288 3.0486 8.43368 3.50547 8.29928C2.05461 8.00488 1.01123 6.68008 1.00506 5.13767C1.00506 5.12487 1.00506 5.11207 1.00506 5.09927C1.43723 5.34887 1.92496 5.48967 2.41887 5.50247C1.05445 4.55527 0.628457 2.66726 1.45575 1.18886C3.04243 3.21126 5.37614 4.43367 7.88272 4.56807C7.62959 3.44807 7.97533 2.27046 8.7841 1.47686C10.0374 0.254456 12.013 0.318456 13.1984 1.61766C13.896 1.47686 14.569 1.20806 15.1802 0.830457C14.9456 1.57926 14.4579 2.21286 13.8096 2.61606C14.427 2.53926 15.032 2.36646 15.6 2.11046C15.1802 2.76326 14.6493 3.32647 14.038 3.78727Z" fill="white"/>
</svg>
