<svg width="54" height="54" viewBox="0 0 54 54" fill="none" xmlns="http://www.w3.org/2000/svg">
<rect width="54" height="54" rx="5" fill="white"/>
<path d="M34.875 27.5C34.875 28.2031 34.2891 28.7891 33.625 28.7891H28V34.4141C28 35.0781 27.4141 35.625 26.75 35.625C26.0469 35.625 25.5 35.0781 25.5 34.4141V28.7891H19.875C19.1719 28.7891 18.625 28.2031 18.625 27.5C18.625 26.8359 19.1719 26.2891 19.875 26.2891H25.5V20.6641C25.5 19.9609 26.0469 19.375 26.75 19.375C27.4141 19.375 28 19.9609 28 20.6641V26.2891H33.625C34.2891 26.25 34.875 26.8359 34.875 27.5Z" fill="#D2042D"/>
</svg>
