<svg width="33" height="32" viewBox="0 0 33 32" fill="none" xmlns="http://www.w3.org/2000/svg">
<path d="M14.1615 24.0001C16.5281 23.9996 18.8266 23.2073 20.6908 21.7494L26.5521 27.6107L28.4375 25.7254L22.5761 19.8641C24.0348 17.9996 24.8276 15.7007 24.8281 13.3334C24.8281 7.45208 20.0428 2.66675 14.1615 2.66675C8.28015 2.66675 3.49481 7.45208 3.49481 13.3334C3.49481 19.2147 8.28015 24.0001 14.1615 24.0001ZM14.1615 5.33341C18.5735 5.33341 22.1615 8.92141 22.1615 13.3334C22.1615 17.7454 18.5735 21.3334 14.1615 21.3334C9.74948 21.3334 6.16148 17.7454 6.16148 13.3334C6.16148 8.92141 9.74948 5.33341 14.1615 5.33341Z" fill="#474747"/>
<path d="M16.0441 11.4481C16.5494 11.9548 16.8281 12.6241 16.8281 13.3334H19.4948C19.4959 12.6327 19.3582 11.9386 19.0895 11.2914C18.8209 10.6442 18.4266 10.0567 17.9294 9.56278C15.9108 7.54678 12.4108 7.54678 10.3934 9.56278L12.2761 11.4508C13.2894 10.4401 15.0361 10.4428 16.0441 11.4481Z" fill="#474747"/>
</svg>
