<svg width="54" height="54" viewBox="0 0 54 54" fill="none" xmlns="http://www.w3.org/2000/svg">
<rect width="54" height="54" rx="5" fill="white"/>
<path d="M33.0379 23.7871C33.0441 23.9279 33.0441 24.0623 33.0441 24.2031C33.0503 28.472 29.914 33.4 24.1785 33.4C22.4868 33.4 20.8261 32.8944 19.3999 31.9472C19.6469 31.9792 19.8938 31.992 20.1408 31.992C21.5422 31.992 22.9066 31.5056 24.0118 30.6032C22.6782 30.5776 21.5052 29.6752 21.0977 28.3568C21.5669 28.4528 22.0485 28.4336 22.5053 28.2992C21.0545 28.0048 20.0111 26.68 20.0049 25.1375C20.0049 25.1247 20.0049 25.1119 20.0049 25.0991C20.4371 25.3488 20.9248 25.4896 21.4187 25.5024C20.0543 24.5551 19.6283 22.6671 20.4556 21.1887C22.0423 23.2111 24.376 24.4335 26.8826 24.5679C26.6295 23.4479 26.9752 22.2703 27.784 21.4767C29.0373 20.2543 31.0129 20.3183 32.1983 21.6175C32.8959 21.4767 33.5689 21.2079 34.1801 20.8303C33.9455 21.5791 33.4577 22.2127 32.8095 22.6159C33.4269 22.5391 34.0319 22.3663 34.5999 22.1103C34.1801 22.7631 33.6491 23.3263 33.0379 23.7871Z" fill="#D2042D"/>
</svg>
