<svg width="62" height="71" viewBox="0 0 62 71" fill="none" xmlns="http://www.w3.org/2000/svg">
<path d="M61.9898 46.4854C61.877 43.9198 60.8278 41.4442 59.0353 39.5145L58.5204 38.9602C58.0168 38.4177 57.1999 38.4177 56.6961 38.9596C56.192 39.5015 56.1918 40.3805 56.6956 40.9228L57.2105 41.4771C59.9295 44.4044 60.1828 48.718 57.7871 51.2972L50.5456 59.0938C49.8801 59.8101 48.243 60.4012 46.0848 60.107L29.274 57.8426C27.555 57.6108 26.7309 56.0959 26.8284 54.7881C26.8688 54.2451 27.1461 52.9903 28.8175 53.0527L33.3978 53.2284C34.6913 53.2777 36.3017 53.3389 36.8144 52.0354C37.2236 50.9954 36.5115 50.0915 36.2775 49.7944C35.9567 49.3874 35.5141 48.9296 34.9539 48.3502C34.6218 48.0069 34.2456 47.6178 33.8482 47.1901L20.7177 33.0532C20.3092 32.6133 20.1091 32.1481 20.1228 31.6705C20.1344 31.2654 20.3086 30.8528 20.6007 30.5388C20.8923 30.2252 21.2749 30.0383 21.6504 30.0261C22.0955 30.0109 22.5244 30.2271 22.9324 30.6664L35.9431 44.6744C36.4467 45.2167 37.2635 45.2169 37.7675 44.6749C38.2715 44.133 38.2718 43.254 37.768 42.7118L32.7658 37.3263C32.7477 37.304 32.7287 37.2822 32.709 37.261C32.3009 36.8223 32.101 36.3583 32.1144 35.8818C32.1259 35.4774 32.2997 35.0652 32.5915 34.7511C32.8833 34.4369 33.2664 34.2494 33.6423 34.2368C34.0843 34.2207 34.5165 34.4368 34.9238 34.8745L36.5449 36.6212C36.5769 36.6575 36.6095 36.6934 36.643 36.7294C36.6586 36.7462 36.6743 36.7625 36.6906 36.7782L39.9823 40.3247C40.4858 40.8671 41.3025 40.8679 41.8067 40.326C42.3109 39.7842 42.3113 38.9053 41.8079 38.3628L38.3976 34.6885C38.0365 34.2718 37.8599 33.8335 37.8727 33.3841C37.8844 32.979 38.0585 32.5666 38.3506 32.2524C38.6422 31.9388 39.0249 31.752 39.4003 31.7397C39.6718 31.7309 39.9401 31.8098 40.2016 31.9737C40.2037 31.9749 40.2057 31.976 40.2078 31.9771C40.369 32.0791 40.5275 32.2132 40.6825 32.3799L42.3894 34.2178C42.3932 34.2219 42.3973 34.2263 42.4013 34.2305C42.4032 34.2325 42.405 34.2346 42.4069 34.2365L44.022 35.9757C44.5258 36.518 45.3426 36.5182 45.8465 35.9762C46.3505 35.4343 46.3508 34.5553 45.847 34.013L44.2192 32.2604C43.0787 31.0245 43.9312 29.9827 44.1141 29.786C44.6303 29.2305 45.5499 28.9219 46.4407 29.8811L48.5727 32.1768C49.0765 32.7191 49.8933 32.7191 50.3972 32.1773C50.9013 31.6354 50.9015 30.7564 50.3979 30.2142L48.2657 27.9185C46.2974 25.7992 43.7176 26.287 42.2901 27.8222C42.2275 27.8894 42.1676 27.9594 42.1089 28.0308V21.1318C45.884 19.5184 48.5599 15.5652 48.5599 10.9525C48.5599 4.91363 43.9714 0 38.3313 0C38.0847 0 37.8408 0.0126771 37.5984 0.0312795H6.8453C3.07074 0.0312795 0 3.33712 0 7.40042V63.2022C0 67.2656 3.07074 70.5713 6.8453 70.5713H11.737C12.4494 70.5713 13.0271 69.9498 13.0271 69.1831C13.0271 68.4165 12.4494 67.7951 11.737 67.7951H6.8453C4.49348 67.7951 2.58002 65.7347 2.58002 63.2022V57.8986H24.9894C25.7442 59.2612 27.0677 60.343 28.9534 60.5973L39.5288 62.0218V63.2022C39.5288 65.7347 37.6156 67.7951 35.2636 67.7951H23.2283C22.5159 67.7951 21.9383 68.4166 21.9383 69.1833C21.9383 69.95 22.5158 70.5714 23.2283 70.5714H35.2636C39.0382 70.5714 42.1089 67.2656 42.1089 63.2023V62.3695L45.7623 62.8615C46.2422 62.927 46.7164 62.9589 47.1801 62.9589C49.3253 62.9588 51.2388 62.2747 52.3703 61.0563L59.6119 53.2597C61.2595 51.486 62.1038 49.0802 61.9898 46.4854ZM45.9797 10.9532C45.9797 15.4642 42.5486 19.1341 38.3312 19.1341C34.1138 19.1341 30.6827 15.4642 30.6827 10.9532C30.6827 6.4444 34.1138 2.77616 38.3312 2.77616C42.5486 2.77616 45.9797 6.4444 45.9797 10.9532ZM2.58002 55.1224V7.40042C2.58002 4.86788 4.49335 2.80744 6.8453 2.80744H31.502C29.417 4.81401 28.1028 7.72203 28.1028 10.9532C28.1028 16.9949 32.6913 21.9104 38.3313 21.9104C38.7366 21.9104 39.1357 21.8821 39.5288 21.8328V28.9644C39.4576 28.9627 39.3887 28.963 39.3226 28.9651C38.2823 28.999 37.2894 29.4691 36.5268 30.2891C36.0933 30.7553 35.7509 31.3227 35.5363 31.9468C34.7919 31.5356 34.0927 31.4444 33.562 31.462C32.5215 31.4969 31.5288 31.9682 30.7666 32.7887C30.3794 33.2056 30.0761 33.6865 29.8673 34.2054L24.7575 28.7039C23.5991 27.4566 22.1069 26.9797 20.6633 27.3953C19.2338 27.8069 18.0623 29.067 17.6786 30.6056C17.2911 32.1601 17.7337 33.7675 18.8929 35.0155L32.0232 49.1523C32.4389 49.5999 32.8253 49.9992 33.1659 50.3517C33.1957 50.3825 33.2258 50.4135 33.2559 50.4447L28.9092 50.2779C26.3671 50.1801 24.452 51.9443 24.2565 54.566C24.2428 54.7497 24.2391 54.9354 24.2432 55.1221H2.58002V55.1224Z" fill="#5956E9"/>
</svg>
