<svg width="120" height="114" viewBox="0 0 120 114" fill="none" xmlns="http://www.w3.org/2000/svg">
<path d="M6.09339 107.283C6.90736 109.865 7.85262 113.673 11.161 113.673C15.1784 113.194 19.1957 112.315 23.1081 111.223C25.3137 109.519 24.736 106.377 25.0249 103.928C26.9154 101.398 27.388 98.2825 26.7841 95.1937C28.4645 99.96 30.6964 104.567 33.821 108.534C38.7049 106.59 43.8775 105.871 48.9977 104.939C53.4352 103.928 52.7787 98.4157 52.8838 94.9008C53.8553 92.7174 54.5642 90.4275 55.0106 88.0576C55.7721 91.9985 57.4525 95.6997 59.7369 98.9748C66.8789 97.1642 74.3097 96.8979 81.3991 95.034C83.9723 91.0931 84.0774 86.2203 85.1014 81.747C86.6768 85.9807 87.4646 90.6405 90.0378 94.3949C90.9305 95.8062 92.6372 95.1405 93.9763 95.0872C98.8865 94.5281 103.14 91.7588 107.919 90.6937C110.072 90.1878 112.278 89.7884 114.457 89.3091C117.897 82.7588 120.076 75.2499 119.472 67.741C118.632 58.1019 117.87 48.4361 116.059 38.9302C113.748 27.0544 112.435 14.9656 109.206 3.27619C108.812 1.81168 107.945 0.13416 106.238 0.0809056C101.145 -0.398387 96.1557 1.09274 91.1668 2.0247C88.0422 2.79689 84.6288 3.3827 82.1868 5.69927C82.1343 6.87088 82.1081 8.06911 82.1606 9.24071C80.6377 11.8768 78.6946 14.2733 77.6181 17.149C78.6946 28.9449 79.8237 40.8207 80.4539 52.6699C79.246 41.1403 76.8566 29.7704 75.8851 18.2141C72.4454 17.0425 68.9795 18.9331 65.6973 19.9183C60.866 21.8621 55.7721 22.8207 50.7569 24.0721C48.4726 27.9065 46.1619 31.9272 44.7703 36.2408C46.6083 43.5367 48.105 50.9125 49.0765 58.3948C49.8642 64.7853 51.9385 70.9895 52.3586 77.4333C50.4156 66.5427 47.9999 55.732 45.8993 44.8415C45.2954 42.7113 45.0591 39.4627 42.3284 39.09C38.101 38.6107 34.3199 40.9805 30.5914 42.658C28.1232 43.9361 25.3662 44.7616 23.1868 46.5456C20.0622 50.4598 18.5918 55.4658 17.2265 60.2321C17.6466 60.951 18.0667 61.6966 18.4868 62.4155C12.7627 62.8415 8.14145 66.6226 3.02129 68.8593C1.83972 74.0783 -1.07484 79.2706 0.421826 84.7292C1.86597 92.3713 4.09784 99.8003 6.09339 107.283ZM106.028 4.58093C109.127 16.1372 110.256 28.0929 112.12 39.8888C113.275 47.5308 113.774 55.2528 114.063 62.9747C114.194 66.6759 114.93 70.4037 114.142 74.0783C108.208 76.102 102.431 78.5517 96.497 80.602C95.6043 76.6345 94.9741 72.6138 94.6328 68.5664C93.8451 59.3534 92.0596 50.2734 91.4031 41.0604C90.6679 30.0899 88.9612 19.2526 87.412 8.38864C93.5562 6.84425 99.7267 5.37975 106.028 4.58093ZM79.8499 17.1757C80.769 15.3916 81.688 13.6076 82.6595 11.8768C83.8936 21.8887 85.7316 31.8473 86.7031 41.9125C87.2808 48.9421 89.3813 55.7587 89.4864 62.8415C89.5914 66.0102 90.0115 69.1522 90.5629 72.2676C91.4031 76.6079 91.1931 81.2144 93.1361 85.2884L91.1668 89.3624C88.4623 83.1316 87.6746 76.3416 86.1779 69.7646C84.2086 61.2972 84.1299 52.5368 83.0008 43.9095C81.793 35.016 82.1606 25.9094 79.8499 17.1757ZM72.7605 22.7141C72.8393 26.229 73.1544 29.7438 73.7583 33.2053C75.4912 43.0841 75.9376 53.1758 78.3008 62.9214C79.5874 69.0191 81.5304 75.3298 80.2701 81.5872C76.2264 84.7558 70.4499 84.4629 65.5923 85.7677C62.914 73.6256 61.4961 61.2705 58.8179 49.1285C57.3212 42.3385 55.7458 35.5751 55.1419 28.6254C61.1548 27.1609 66.9839 24.9508 72.7605 22.7141ZM47.3698 36.0278C48.1837 33.9775 49.0502 31.9538 49.9167 29.9302C51.3346 37.9184 53.9603 45.6403 55.6408 53.5486C56.2447 59.2735 56.9274 65.025 58.319 70.6434C59.8682 77.0872 60.4721 83.7174 62.2576 90.1079C61.5487 91.0133 60.8135 91.892 60.1045 92.7973C56.271 84.2499 55.7721 74.7706 53.4877 65.7972C51.0983 55.9717 51.0983 45.5338 47.3698 36.0278ZM41.4356 43.5101C44.8228 58.7409 47.7111 74.1315 49.6016 89.6286C45.2167 90.8801 40.8054 91.9985 36.4205 93.1967C34.5825 87.6316 33.1383 81.9333 32.4294 76.102C31.3003 67.3682 28.1232 59.0338 27.388 50.2202C31.773 47.4509 36.6305 45.4539 41.4356 43.5101ZM22.6617 51.4184C24.0008 59.4066 27.0729 66.9688 28.6746 74.9037C29.9087 83.3446 30.5914 92.3713 35.2127 99.7737C34.9238 100.785 34.3199 102.809 34.0311 103.794C29.7249 96.5517 27.3355 88.3239 25.445 80.1227C23.922 73.1996 23.1868 65.9836 20.246 59.4332C20.9025 56.7173 21.7427 54.0545 22.6617 51.4184ZM16.5438 67.1019C18.9069 77.0073 21.4801 86.9659 22.2678 97.1642C18.9069 97.6168 15.5985 98.4423 12.3689 99.4808C11.1873 95.6198 10.8197 91.5724 10.0845 87.605C9.13923 82.4126 7.69508 77.3534 6.53976 72.241C9.97946 70.7232 13.1828 68.7794 16.5438 67.1019Z" fill="#191919"/>
</svg>
