<svg width="65" height="71" viewBox="0 0 65 71" fill="none" xmlns="http://www.w3.org/2000/svg">
<g clip-path="url(#clip0_0_148)">
<path d="M11.9983 9.77148C9.79364 9.77148 8 11.7198 8 14.1143C8 16.5089 9.79364 18.4572 11.9983 18.4572C14.2048 18.4572 16 16.5089 16 14.1143C16 11.7198 14.2048 9.77148 11.9983 9.77148ZM11.9983 15.8672C11.108 15.8672 10.3838 15.0808 10.3838 14.1143C10.3838 13.1478 11.108 12.3616 11.9983 12.3616C12.8904 12.3616 13.6164 13.148 13.6164 14.1145C13.6164 15.081 12.8904 15.8672 11.9983 15.8672Z" fill="#5956E9"/>
<path d="M49.4775 9.77148H37.5225C35.0288 9.77148 33 11.7198 33 14.1143C33 16.5089 35.0288 18.4572 37.5225 18.4572H49.4775C51.9712 18.4572 54 16.5089 54 14.1143C54 11.7198 51.9712 9.77148 49.4775 9.77148ZM49.4775 15.8672H37.5225C36.5154 15.8672 35.6962 15.0808 35.6962 14.1143C35.6962 13.1478 36.5156 12.3615 37.5225 12.3615H49.4775C50.4846 12.3615 51.3038 13.1478 51.3038 14.1143C51.3038 15.0808 50.4846 15.8672 49.4775 15.8672Z" fill="#5956E9"/>
<path d="M23.4981 9.77148C21.0178 9.77148 19 11.7198 19 14.1143C19 16.5089 21.0178 18.4572 23.4981 18.4572C25.9804 18.4572 28 16.5089 28 14.1143C28 11.7198 25.9804 9.77148 23.4981 9.77148ZM23.4981 15.8672C22.4965 15.8672 21.6817 15.0808 21.6817 14.1143C21.6817 13.1478 22.4967 12.3615 23.4981 12.3615C24.5017 12.3615 25.3184 13.1478 25.3184 14.1143C25.3184 15.0808 24.5017 15.8672 23.4981 15.8672Z" fill="#5956E9"/>
<path d="M21.0365 32.6073C20.3626 32.4446 19.6853 32.8639 19.5242 33.5433L17.0346 44.0419C16.8736 44.7212 17.2894 45.4036 17.9635 45.5659C18.0615 45.5894 18.1597 45.6008 18.2563 45.6008C18.8236 45.6008 19.3381 45.2103 19.4757 44.6298L21.9653 34.1312C22.1265 33.4519 21.7106 32.7697 21.0365 32.6073Z" fill="#5956E9"/>
<path d="M26.4103 45.2555C26.6437 45.4858 26.9347 45.5991 27.2246 45.5991C27.5619 45.5991 27.8977 45.4457 28.1398 45.1447L31.5745 40.8737C32.1412 40.1749 32.1412 39.0805 31.578 38.3861L28.1397 34.1106C27.6895 33.5509 26.9152 33.5017 26.4103 33.9999C25.905 34.4984 25.8603 35.3561 26.3103 35.9155L29.2955 39.6275L26.3103 43.3397C25.8604 43.8994 25.9051 44.7571 26.4103 45.2555Z" fill="#5956E9"/>
<path d="M13.5211 33.9998C12.9316 33.5014 12.0286 33.5513 11.5036 34.1106L7.49708 38.3812C6.83506 39.0802 6.83506 40.1751 7.49254 40.8693L11.5037 45.1447C11.7861 45.4459 12.1778 45.5991 12.5714 45.5991C12.9095 45.5991 13.2492 45.4858 13.5214 45.2555C14.1108 44.757 14.163 43.8992 13.638 43.3398L10.1555 39.6278L13.638 35.9157C14.1627 35.3559 14.1106 34.4982 13.5211 33.9998Z" fill="#5956E9"/>
<path d="M62.13 48.4373H61.6547C61.4057 47.5611 61.0831 46.7153 60.6896 45.907L61.0288 45.5371C61.5705 44.9522 61.8695 44.171 61.8706 43.3376C61.8717 42.5022 61.5738 41.7179 61.0314 41.1288L60.3705 40.4111V10.7822C60.3705 6.63314 57.6758 3.25781 54.3633 3.25781H6.00719C2.69472 3.25781 0 6.63314 0 10.7822V49.6602C0 53.8093 2.69472 57.1846 6.00719 57.1846H13.5185C14.2255 57.1846 14.7987 56.5618 14.7987 55.7936C14.7987 55.0254 14.2255 54.4027 13.5185 54.4027H6.00719C4.13894 54.4027 2.56053 52.2308 2.56053 49.6604V24.4242H57.8099V38.4807C57.664 38.4563 57.5162 38.4403 57.3658 38.4403C57.3643 38.4403 57.3627 38.4403 57.3613 38.4403C56.5943 38.4416 55.8753 38.7661 55.3411 39.3497L54.995 39.7241C54.2355 39.288 53.4444 38.9334 52.6288 38.6626V38.1671C52.6288 36.4479 51.3412 35.0494 49.7585 35.0494H47.4417C45.861 35.0494 44.5751 36.4479 44.5751 38.1671V38.6966C43.7748 38.9698 43.002 39.3214 42.2634 39.7485L41.9318 39.3893C41.3932 38.8013 40.6742 38.4765 39.9071 38.4753C39.9057 38.4753 39.9043 38.4753 39.9028 38.4753C39.1356 38.4753 38.4153 38.7988 37.8741 39.3864L36.2373 41.164C35.6949 41.753 35.397 42.5374 35.3981 43.3726C35.3992 44.2061 35.6981 44.9872 36.2357 45.5676L36.5893 45.9529C36.2055 46.7488 35.8903 47.579 35.6464 48.437H35.1602C33.5794 48.437 32.2934 49.8338 32.2934 51.5508V54.0705C32.2934 54.1825 32.2992 54.2931 32.3098 54.4021H24.8608C24.1538 54.4021 23.5806 55.0249 23.5806 55.7931C23.5806 56.5612 24.1538 57.184 24.8608 57.184H35.1601H35.6512C35.8988 58.0501 36.2189 58.887 36.6092 59.6881L36.2633 60.0624C35.1495 61.279 35.1505 63.2541 36.266 64.4651L37.9037 66.2438C38.4422 66.8318 39.1613 67.1565 39.9283 67.1577H39.9325C40.6998 67.1577 41.4201 66.8343 41.9613 66.2465L42.3043 65.8742C43.0482 66.3003 43.8217 66.6485 44.618 66.9159V67.4543C44.618 69.1735 45.9039 70.5721 47.4847 70.5721H49.805C51.3857 70.5721 52.6717 69.1735 52.6717 67.4543V66.9192C53.4754 66.6498 54.2521 66.3003 54.9952 65.8741L55.3365 66.2436C55.875 66.8318 56.5939 67.1564 57.361 67.1577H57.3654C58.1326 67.1577 58.8529 66.8343 59.3951 66.2455L61.0284 64.468C61.5701 63.883 61.8691 63.1018 61.8702 62.2684C61.8714 61.4331 61.5734 60.6487 61.0309 60.0596L60.6893 59.6886C61.0789 58.8867 61.3987 58.0493 61.6459 57.1842H62.1297C63.7124 57.1842 65 55.7874 65 54.0705V51.5508C65.0003 49.834 63.7127 48.4373 62.13 48.4373ZM2.56053 21.6421V10.7822C2.56053 8.2117 4.13894 6.03987 6.00719 6.03987H54.3633C56.2316 6.03987 57.81 8.2117 57.81 10.7822V21.6422L2.56053 21.6421ZM62.4397 54.0708C62.4397 54.2475 62.295 54.4024 62.1298 54.4024H60.6658C60.0689 54.4024 59.5512 54.8505 59.4179 55.4827C59.1413 56.7938 58.6664 58.0372 58.0061 59.1786C57.6881 59.7283 57.7624 60.4439 58.1851 60.9028L59.2211 62.0277C59.2985 62.1118 59.3099 62.2123 59.3099 62.2647C59.3098 62.3273 59.2948 62.4182 59.2201 62.4988L57.5844 64.2791C57.5068 64.3633 57.4143 64.3759 57.3655 64.3759C57.3654 64.3759 57.3653 64.3759 57.3653 64.3759C57.3071 64.3759 57.2232 64.3595 57.1482 64.2775L56.1084 63.1524C55.6855 62.6949 55.0282 62.6156 54.5233 62.9604C53.4712 63.6795 52.322 64.1964 51.1075 64.4966C50.5249 64.6409 50.1114 65.2037 50.1114 65.8531V67.4547C50.1114 67.6335 49.9683 67.7905 49.8053 67.7905H47.485C47.3218 67.7905 47.1788 67.6336 47.1788 67.4547V65.8491C47.1788 65.1992 46.7644 64.6357 46.1809 64.4924C44.9818 64.1977 43.8347 63.6817 42.7716 62.9589C42.5621 62.8164 42.3267 62.7469 42.0927 62.7469C41.762 62.7469 41.4342 62.8858 41.1873 63.1542L40.1515 64.2791C40.0739 64.3633 39.9814 64.3759 39.9326 64.3759C39.9325 64.3759 39.9324 64.3759 39.9322 64.3759C39.8742 64.3759 39.7902 64.3595 39.7167 64.2793L38.0763 62.4978C37.9614 62.3731 37.9627 62.1521 38.0748 62.0296L39.1144 60.9046C39.5392 60.445 39.6135 59.7269 39.2934 59.1763C38.6321 58.0386 38.1565 56.796 37.8798 55.4831C37.7465 54.851 37.2288 54.4027 36.6317 54.4027H35.1603C34.9944 54.4027 34.8541 54.2508 34.8541 54.0711V51.5514C34.8541 51.3716 34.9944 51.2196 35.1603 51.2196H36.628C37.2256 51.2196 37.7438 50.7704 37.8765 50.1374C38.1497 48.8329 38.6192 47.5955 39.2718 46.4591C39.5869 45.9105 39.5125 45.1984 39.0922 44.7404L38.0448 43.5991C37.9737 43.5224 37.9588 43.4315 37.9586 43.3689C37.9586 43.3165 37.9701 43.2161 38.0475 43.1321L39.6842 41.3546C39.7618 41.2705 39.8543 41.2578 39.903 41.2578H39.9034C39.9614 41.2579 40.0455 41.2742 40.1205 41.3563L41.1529 42.4736C41.5771 42.9325 42.2368 43.0111 42.7419 42.6629C43.788 41.9424 44.9337 41.4204 46.1471 41.1118C46.726 40.9647 47.1355 40.4035 47.1355 39.7574V38.1676C47.1355 37.9856 47.2756 37.8318 47.4416 37.8318H49.7583C49.9263 37.8318 50.0682 37.9856 50.0682 38.1676V39.734C50.0682 40.3857 50.4846 40.95 51.0703 41.0917C52.2884 41.3865 53.4505 41.907 54.5244 42.6391C55.0291 42.9828 55.6858 42.9034 56.1083 42.4462L57.1522 41.3165C57.2231 41.2392 57.307 41.2229 57.365 41.2227H57.3654C57.4141 41.2227 57.5067 41.2354 57.5841 41.3196L59.2209 43.0969C59.2984 43.181 59.3098 43.2815 59.3098 43.3339C59.3097 43.3965 59.2947 43.4874 59.2194 43.5686L58.1834 44.6977C57.7615 45.1574 57.6884 45.873 58.0071 46.422C58.67 47.5637 59.1468 48.814 59.4246 50.1379C59.5574 50.7708 60.0753 51.2198 60.6729 51.2198H62.1298C62.2949 51.2198 62.4397 51.3749 62.4397 51.5515V54.0708Z" fill="#5956E9"/>
<path d="M48.0018 43.4277C43.5896 43.4277 40 47.325 40 52.1154C40 56.9036 43.5896 60.7992 48.0018 60.7992C52.4121 60.7992 56 56.9037 56 52.1154C56 47.3251 52.4121 43.4277 48.0018 43.4277ZM48.0018 57.9547C45.0337 57.9547 42.6188 55.3352 42.6188 52.1154C42.6188 48.8934 45.0337 46.2722 48.0018 46.2722C50.968 46.2722 53.3812 48.8934 53.3812 52.1154C53.3812 55.3352 50.9679 57.9547 48.0018 57.9547Z" fill="#5956E9"/>
<path d="M19.5146 54.2852H19.4854C18.6651 54.2852 18 54.7713 18 55.3709C18 55.9705 18.6651 56.4566 19.4854 56.4566H19.5146C20.3349 56.4566 21 55.9705 21 55.3709C21 54.7713 20.3349 54.2852 19.5146 54.2852Z" fill="#5956E9"/>
</g>
<defs>
<clipPath id="clip0_0_148">
<rect width="65" height="70.5714" fill="white"/>
</clipPath>
</defs>
</svg>
