<svg width="139" height="140" viewBox="0 0 139 140" fill="none" xmlns="http://www.w3.org/2000/svg">
<path d="M29.8535 87.4221C16.6239 79.7044 16.6239 60.589 29.8534 52.8714L73.6411 27.3272C86.9742 19.5491 103.719 29.1664 103.719 44.6025L103.719 95.691C103.719 111.127 86.9743 120.744 73.6411 112.966L29.8535 87.4221Z" fill="white"/>
<ellipse cx="69.9392" cy="70.1435" rx="21.2264" ry="20.9601" fill="#D2042D"/>
<path d="M76.6855 70.1435C76.6859 70.309 76.6439 70.4718 76.5636 70.616C76.4833 70.7603 76.3674 70.8811 76.2272 70.9667L67.5388 76.3371C67.3923 76.4277 67.2246 76.4772 67.0528 76.4804C66.8811 76.4836 66.7116 76.4404 66.5619 76.3554C66.4136 76.2716 66.2901 76.1494 66.2041 76.0014C66.118 75.8534 66.0725 75.6849 66.0723 75.5133V64.7737C66.0725 64.602 66.118 64.4335 66.2041 64.2855C66.2901 64.1375 66.4136 64.0154 66.5619 63.9316C66.7116 63.8465 66.8811 63.8034 67.0528 63.8066C67.2246 63.8098 67.3923 63.8593 67.5388 63.9499L76.2272 69.3203C76.3674 69.4059 76.4833 69.5267 76.5636 69.6709C76.6439 69.8152 76.6859 69.978 76.6855 70.1435Z" fill="white"/>
<path opacity="0.5" d="M95.9683 70.1432C95.9683 84.6784 84.3081 96.4527 69.9353 96.4527C55.5626 96.4527 43.9023 84.6784 43.9023 70.1432C43.9023 55.608 55.5626 43.8337 69.9353 43.8337C84.3081 43.8337 95.9683 55.608 95.9683 70.1432Z" stroke="white"/>
</svg>
