<svg width="18" height="15" viewBox="0 0 18 15" fill="none" xmlns="http://www.w3.org/2000/svg">
<path d="M11.4414 5.5625C11.4414 8.24219 8.87109 10.375 5.75391 10.375C4.6875 10.375 3.73047 10.1562 2.88281 9.71875C2.19922 10.0742 1.32422 10.375 0.257812 10.375C0.175781 10.375 0.09375 10.3477 0.0664062 10.2656C0.0390625 10.1836 0.0390625 10.1016 0.121094 10.0469C0.121094 10.0195 0.75 9.36328 1.1875 8.46094C0.476562 7.64062 0.0664062 6.65625 0.0664062 5.5625C0.0664062 2.91016 2.60938 0.75 5.75391 0.75C8.87109 0.75 11.4414 2.91016 11.4414 5.5625ZM16.4453 12.8906C16.8828 13.7656 17.4844 14.3945 17.4844 14.4219C17.5391 14.4766 17.5664 14.5586 17.5391 14.6406C17.5117 14.7227 17.4297 14.75 17.3477 14.75C16.3633 14.75 15.5156 14.4766 14.832 14.1758C14.0938 14.5312 13.2188 14.75 12.3164 14.75C9.82812 14.75 7.77734 13.2188 7.20312 11.1133C10.1289 10.5391 12.3164 8.26953 12.3164 5.5625C12.3164 5.42578 12.2891 5.28906 12.2891 5.15234C12.2891 5.15234 12.2891 5.125 12.3164 5.125C15.2148 5.125 17.5664 7.28516 17.5664 9.9375C17.5664 11.0586 17.1289 12.0703 16.4453 12.8906Z" fill="#5956E9"/>
</svg>
