<svg width="15" height="15" viewBox="0 0 15 15" fill="none" xmlns="http://www.w3.org/2000/svg">
<path fill-rule="evenodd" clip-rule="evenodd" d="M10.5625 2.35625H10.625C12.3509 2.35625 13.75 3.75536 13.75 5.48125V11.1063C13.75 12.8321 12.3509 14.2313 10.625 14.2313H4.375C3.5462 14.2313 2.75134 13.902 2.16529 13.316C1.57924 12.7299 1.25 11.9351 1.25 11.1063V5.48125C1.25 3.75536 2.64911 2.35625 4.375 2.35625H4.4375V1.21875C4.4375 0.959867 4.64737 0.75 4.90625 0.75C5.16513 0.75 5.375 0.959867 5.375 1.21875V2.35625H9.625V1.21875C9.625 0.959867 9.83487 0.75 10.0938 0.75C10.3526 0.75 10.5625 0.959867 10.5625 1.21875V2.35625ZM4.6875 6.1625H10.3125C10.5714 6.1625 10.7812 5.95263 10.7812 5.69375C10.7812 5.43487 10.5714 5.225 10.3125 5.225H4.6875C4.42862 5.225 4.21875 5.43487 4.21875 5.69375C4.21875 5.95263 4.42862 6.1625 4.6875 6.1625Z" fill="white"/>
</svg>
