<svg width="15" height="15" viewBox="0 0 15 15" fill="none" xmlns="http://www.w3.org/2000/svg">
<path fill-rule="evenodd" clip-rule="evenodd" d="M10.9761 1.25H4.02609C2.4504 1.30437 1.21245 2.6176 1.25109 4.19375V12.775C1.23496 13.0633 1.39912 13.3315 1.66324 13.4483C1.92736 13.565 2.23619 13.506 2.43859 13.3L3.91984 11.7188C4.20206 11.4227 4.59212 11.2536 5.00109 11.25H10.9511C11.7193 11.2305 12.4477 10.9043 12.9737 10.3442C13.4998 9.78404 13.7797 9.03664 13.7511 8.26875V4.19375C13.7897 2.6176 12.5518 1.30437 10.9761 1.25ZM5.15734 4.5125H8.28234C8.54122 4.5125 8.75109 4.72237 8.75109 4.98125C8.75109 5.24013 8.54122 5.45 8.28234 5.45H5.15734C4.89845 5.45 4.68859 5.24013 4.68859 4.98125C4.68859 4.72237 4.89845 4.5125 5.15734 4.5125ZM5.15734 7.95H9.84484C10.1037 7.95 10.3136 7.74013 10.3136 7.48125C10.3136 7.22237 10.1037 7.0125 9.84484 7.0125H5.15734C4.89845 7.0125 4.68859 7.22237 4.68859 7.48125C4.68859 7.74013 4.89845 7.95 5.15734 7.95Z" fill="white"/>
</svg>
