<svg width="15" height="15" viewBox="0 0 15 15" fill="none" xmlns="http://www.w3.org/2000/svg">
<path d="M10.4004 13.75H4.60036C3.9686 13.727 3.38009 13.4231 2.99558 12.9213C2.61107 12.4195 2.47072 11.7723 2.61286 11.1563L2.76286 10.4438C2.93539 9.47924 3.7645 8.77044 4.74411 8.75001H10.2566C11.2362 8.77044 12.0653 9.47924 12.2379 10.4438L12.3879 11.1563C12.53 11.7723 12.3897 12.4195 12.0051 12.9213C11.6206 13.4231 11.0321 13.727 10.4004 13.75Z" fill="white"/>
<path d="M7.81286 7.50001H7.18786C5.80715 7.50001 4.68786 6.38072 4.68786 5.00001V3.35001C4.6862 2.79255 4.90691 2.25743 5.3011 1.86325C5.69529 1.46906 6.2304 1.24834 6.78786 1.25001H8.21286C8.77033 1.24834 9.30544 1.46906 9.69963 1.86325C10.0938 2.25743 10.3145 2.79255 10.3129 3.35001V5.00001C10.3129 5.66305 10.0495 6.29894 9.58063 6.76778C9.11179 7.23662 8.47591 7.50001 7.81286 7.50001Z" fill="white"/>
</svg>
