<svg width="19" height="18" viewBox="0 0 19 18" fill="none" xmlns="http://www.w3.org/2000/svg">
<path d="M9.5 0C4.52966 0 0.5 4.02966 0.5 9C0.5 13.9703 4.52966 18 9.5 18C14.4703 18 18.5 13.9703 18.5 9C18.5 4.02966 14.4703 0 9.5 0ZM13.6538 10.3846H9.5C9.31639 10.3846 9.1403 10.3117 9.01046 10.1818C8.88063 10.052 8.80769 9.87592 8.80769 9.69231V3.46154C8.80769 3.27793 8.88063 3.10184 9.01046 2.972C9.1403 2.84217 9.31639 2.76923 9.5 2.76923C9.68361 2.76923 9.8597 2.84217 9.98954 2.972C10.1194 3.10184 10.1923 3.27793 10.1923 3.46154V9H13.6538C13.8375 9 14.0135 9.07294 14.1434 9.20277C14.2732 9.3326 14.3462 9.5087 14.3462 9.69231C14.3462 9.87592 14.2732 10.052 14.1434 10.1818C14.0135 10.3117 13.8375 10.3846 13.6538 10.3846Z" fill="white"/>
</svg>
