<svg width="32" height="32" viewBox="0 0 32 32" fill="none" xmlns="http://www.w3.org/2000/svg">
<path d="M21.4213 11.9932C21.5169 11.901 21.5931 11.7907 21.6456 11.6687C21.698 11.5467 21.7257 11.4155 21.7269 11.2827C21.7281 11.15 21.7029 11.0183 21.6527 10.8954C21.6024 10.7724 21.5282 10.6608 21.4344 10.5668C21.3405 10.4729 21.2289 10.3986 21.1061 10.3482C20.9832 10.2979 20.8515 10.2725 20.7187 10.2736C20.586 10.2747 20.4547 10.3022 20.3327 10.3546C20.2107 10.4069 20.1003 10.4831 20.008 10.5785L16 14.5852L11.9933 10.5785C11.9018 10.4803 11.7914 10.4015 11.6687 10.3468C11.546 10.2922 11.4136 10.2628 11.2794 10.2604C11.1451 10.258 11.0117 10.2827 10.8872 10.333C10.7627 10.3833 10.6496 10.4582 10.5546 10.5531C10.4597 10.6481 10.3848 10.7612 10.3345 10.8857C10.2842 11.0103 10.2595 11.1436 10.2619 11.2779C10.2642 11.4122 10.2936 11.5446 10.3483 11.6672C10.4029 11.7899 10.4817 11.9003 10.58 11.9919L14.584 15.9999L10.5773 20.0065C10.4007 20.1961 10.3045 20.4468 10.3091 20.7059C10.3137 20.965 10.4186 21.2121 10.6018 21.3954C10.7851 21.5786 11.0322 21.6835 11.2913 21.6881C11.5504 21.6927 11.8011 21.5965 11.9907 21.4199L16 17.4132L20.0067 21.4212C20.1962 21.5978 20.447 21.694 20.706 21.6894C20.9651 21.6849 21.2123 21.5799 21.3955 21.3967C21.5787 21.2135 21.6837 20.9663 21.6882 20.7072C21.6928 20.4482 21.5966 20.1974 21.42 20.0079L17.416 15.9999L21.4213 11.9932Z" fill="white"/>
</svg>
