<svg width="76" height="76" viewBox="0 0 76 76" fill="none" xmlns="http://www.w3.org/2000/svg">
<rect x="0.343689" y="0.19519" width="75.0612" height="75.0612" rx="37.5306" fill="#D2042D"/>
<path d="M46.2677 35.9147L31.5224 26.7685C31.2178 26.5755 30.8696 26.4713 30.5138 26.4667C30.158 26.4621 29.8074 26.5572 29.4983 26.7423C29.1893 26.9273 28.9329 27.1956 28.7557 27.5194C28.5784 27.8431 28.4868 28.2107 28.4903 28.584V46.8752C28.4899 47.2473 28.5834 47.6129 28.7613 47.9348C28.9393 48.2567 29.1953 48.5234 29.5033 48.7078C29.8113 48.8923 30.1604 48.9878 30.5151 48.9848C30.8697 48.9818 31.2173 48.8803 31.5224 48.6907L46.2677 39.5502C46.5685 39.3639 46.8179 39.0985 46.9911 38.7802C47.1644 38.462 47.2555 38.1018 47.2555 37.7353C47.2555 37.3687 47.1644 37.0086 46.9911 36.6903C46.8179 36.372 46.5685 36.1066 46.2677 35.9203V35.9147Z" fill="white"/>
</svg>
